<svg width="333" height="530" fill="none" xmlns="http://www.w3.org/2000/svg"><g opacity=".5"><path d="M233.462 282.316a957.464 957.464 0 0 1-13.413 13.756c-9.364-42.241-37.671-94.56-105.832-113.23-4.334 13.608 1.858 46.76 61.297 70.511 26.646 10.647 39.356 26.663 44.155 43.101 5.905 20.232-.173 41.102-7.005 53.386 4.176-5.736 10.495-12.469 18.51-18.494-2.787 22.426-7.617 43.209-12.841 61.046a209.236 209.236 0 0 0-18.671 24.248c-36.066 54.762-35.368 81.31-30.198 88.472-7.543 16.368-10.439 27.404.478 22.86 9.699-4.037 3.096-17.937 0-22.267a7.055 7.055 0 0 1-.478-.593c7.858-17.051 20.759-39.888 28.34-56.928a442.33 442.33 0 0 0 20.529-55.792c35.629-39.926 79.827-59.598 100.207-64.818-35.255-22.412-66.862-11.639-87.366 3.772 1.95-15.688 2.901-32.18 2.288-49.03C292.044 220.913 361.785 127.719 318.54 1c-26.903 9.204-68.634 35.192-95.19 81.644-13.197 23.083-22.646 51.219-24.666 84.861-9.18-14.031-20.496-27.57-34.314-40.329 3.095-13.607 7.429-45.275 0-63.088-9.288-22.266-27.863-42.677-42.723-44.533-14.859-1.855-7.43 12.99-7.43 18.556 0 3.458-5.735 14.795-6.516 26C99.3 52.355 84.374 35.41 49.206 26.978 2.769 15.845-2.804 64.088 2.769 69.655 8.34 75.22 6.484 77.077 8.34 82.644c1.857 5.566 7.43 0 9.287 5.566 1.858 5.567 5.573 11.133 13.003 16.7s70.584-7.422 83.586 0c.654.373 1.331.737 2.028 1.09 13.16 6.677 33.265 9.67 33.265 2.621 0-6.816-17.232-12.067-31.555-22.939-.461-5.477-1.776-9.867-3.738-12.316-1.803-2.252-3.824-5.487-6.516-9.254.781-11.206 6.516-22.543 6.516-26.001 0-5.567-7.429-20.411 7.43-18.556 14.86 1.856 33.435 22.267 42.723 44.533 7.429 17.813 3.095 49.481 0 63.088 13.818 12.759 25.134 26.298 34.314 40.329-.745 12.398-.48 25.543.978 39.459a83.732 83.732 0 0 0 15.616-8.617c11.949 27.637 17.176 56.286 18.184 83.969Z" fill="#F6F3F1"/><path d="M153.224 474.161c-6.191-30.307-7.801-102.054 35.292-146.587C242.383 271.908 374.265 164.287 318.54 1c-45.198 15.463-132.252 78.303-118.878 205.964 26.624-11.133 71.24-47.13 23.688-124.32m.459 252.352c1.857-40.203-17.46-126.918-109.592-152.154-4.334 13.608 1.858 46.76 61.297 70.511 59.44 23.75 49.533 74.221 37.15 96.487 14.86-20.41 56.838-53.439 105.876-22.266-24.147 6.185-81.728 32.657-118.878 89.066-37.15 56.408-35.293 82.88-29.72 89.065 3.096 4.33 9.699 18.23 0 22.267-22.29 9.277 13.002-46.389 27.862-79.788 14.745-33.142 89.159-207.82-33.434-321.008 3.095-13.607 7.429-45.275 0-63.088-9.288-22.266-27.863-42.677-42.723-44.533-14.859-1.855-7.43 12.99-7.43 18.556 0 5.566-14.86 31.544 0 44.533 14.86 12.988 35.293 18.555 35.293 25.977 0 7.422-22.29 3.711-35.293-3.711-13.002-7.422-76.156 5.567-83.586 0-7.43-5.567-11.145-11.133-13.003-16.7-1.857-5.566-7.43 0-9.287-5.566-1.857-5.567 0-7.423-5.572-12.99-5.573-5.566 0-53.81 46.437-42.676 46.437 11.133 57.582 37.11 65.011 46.388 7.43 9.278 5.573 46.388-16.717 64.944-22.29 18.555-46.437 37.11-63.154 33.399-16.718-3.711-7.43-18.555-9.288-24.122-1.857-5.566-16.717-11.133-16.717-20.411-4.953-6.803-10.03-21.895 9.287-27.833" stroke="#B69B89"/></g></svg>