<svg width="212" height="408" fill="none" xmlns="http://www.w3.org/2000/svg"><g opacity=".5"><path d="M62.32 281.229c9.531-29.803 21.398-54.436 34.434-74.577-.449-30.461-6.777-62.092-21.81-93.336a44.124 44.124 0 0 1-1.227-.493C60.559 107.3 36.08 89.856 34.429 59.772c-2.13-38.808 1.426-44.719 2.868-49.964 2.032-7.382 21.361 2.685 36.548 21.53.77-7.943 1.748-16.697 2.96-26.345 24.157 34.026 45.537 103.524-3.088 107.83.421.176.83.341 1.227.493 15.033 31.244 21.361 62.875 21.81 93.336 1.226 83.169-41.379 157.606-70.315 191.572 19.343-33.217-13.955-117.568.1-201.052 3.335-19.801 2.329-33.124-.265-41.723a233.168 233.168 0 0 0-9.65-13.334c3.007.983 7.098 4.871 9.65 13.334 29.33 43.723 37.428 88.595 36.045 125.78Z" fill="#F6F3F1"/><path d="M99.625 309.797c11.412-8.97 35.957-39.781 42.836-91.258 6.878-51.477 44.457-81.539 62.386-90.136-47.984 3.783-134.175 59.315-158.923 224.625 17.467-35.322 36.06-126.955-29.3-210.913 6.062 1.983 16.53 15.77 9.916 55.057-14.056 83.484 19.242 167.835-.101 201.052 39.534-46.406 104.583-168.355 48.505-284.908-12.795-4.912-38.81-22.498-40.515-53.544-2.13-38.808 1.426-44.719 2.868-49.964 4.1-14.903 78.689 41.302 47.399 97.269-.455.814-1.289 1.411-2.221 1.414-6.525.021-17.744-7.375-5.67-103.498 25.882 36.455 48.576 113.627-14.596 107.718-1.6-.149-3.237-.533-4.7-1.195-19.445-8.789-37.45-35.936-29.444-102.238l4.345.25" stroke="#B69B89"/></g></svg>