<svg width="16" height="16" fill="none" xmlns="http://www.w3.org/2000/svg"><path d="M4.674 11.876c0 .632-.506 1.145-1.13 1.145a1.138 1.138 0 01-1.131-1.145m2.26 0c0-.633-.505-1.146-1.13-1.146-.624 0-1.13.513-1.13 1.146m2.26 0h4.24m-6.5 0H1V3h7.913v2.004m3.674 6.872c0 .632-.506 1.145-1.13 1.145-.625 0-1.13-.513-1.13-1.145m2.26 0c0-.633-.506-1.146-1.13-1.146-.625 0-1.13.513-1.13 1.146m2.26 0H14V8.44l-.283-.43m-3.39 3.866H8.912m0-6.872v6.872m0-6.872h1.978m0 0h1.413l.27.573 1.143 2.433M10.89 5.004V8.01h2.826" stroke="#B69B89"/></svg>