<svg width="898" height="343" fill="none" xmlns="http://www.w3.org/2000/svg"><g opacity=".5"><mask id="a" fill="#fff"><path fill-rule="evenodd" clip-rule="evenodd" d="M831.797 203.651c-2.742 1.544-5.95 3.104-7.128 3.468-1.179.364-3.832 1.575-5.896 2.692-2.064 1.116-4.717 2.327-5.895 2.691-1.179.363-3.221 1.251-4.539 1.972-1.317.721-3.357 1.603-4.533 1.959-1.175.356-2.606.918-3.179 1.248-.573.331-2.002.889-3.176 1.24-1.174.351-2.603.909-3.176 1.239-.573.331-2.002.889-3.176 1.24-1.174.351-2.603.909-3.176 1.24-.573.33-2.002.888-3.176 1.239-1.174.351-2.297.745-2.496.876-.199.131-1.322.524-2.496.876-1.174.35-2.605.914-3.181 1.252-.576.338-2.819 1.119-4.985 1.735-2.166.616-4.104 1.235-4.306 1.374-.203.14-1.329.541-2.502.891-1.174.351-2.3.752-2.502.892-.202.139-2.14.756-4.305 1.371-2.166.614-4.108 1.244-4.316 1.398-.501.371-21.029 6.146-26.32 7.404-6.39 1.519-14.919 3.402-19.601 4.328-2.328.46-6.012 1.203-8.187 1.651-4.203.865-14.589 2.078-23.289 2.719-11.946.879-11.569.764-16.73 5.102-2.58 2.167-5.298 4.325-6.038 4.795-1.722 1.09-2.26 2.378-1 2.389 1.019.011 5.95-1.331 7.128-1.939.767-.395 14.183-4.072 22.27-6.103 6.982-1.754 35.317-7.883 48.249-10.438a6858.97 6858.97 0 0 1 16.049-3.159c24.656-4.814 39.792-8.326 61.353-14.239 7.987-2.19 14.661-3.917 14.83-3.836 1.051.5-3.29 3.32-6.721 4.364-1.176.358-2.912 1.081-3.857 1.606-.945.526-2.68 1.247-3.856 1.604-1.176.356-2.911 1.078-3.856 1.604-.945.525-2.68 1.244-3.855 1.598-1.175.354-2.605.914-3.178 1.245-.573.33-2.002.888-3.176 1.239-1.173.351-2.296.745-2.496.876-.199.131-1.322.525-2.495.875-1.174.351-2.297.745-2.496.876-.199.131-1.322.525-2.496.876s-2.605.914-3.181 1.252c-.576.338-2.819 1.119-4.985 1.736-2.166.615-4.104 1.234-4.306 1.373-.203.14-1.329.541-2.502.892-1.174.35-2.3.751-2.502.891-.203.139-2.14.757-4.305 1.371-2.166.615-4.108 1.245-4.316 1.399-.484.36-28.165 8.159-33.285 9.378-2.123.506-5.733 1.372-8.023 1.924-4.085.985-6.775 1.529-17.838 3.603-10.484 1.966-28.096 3.967-37.78 4.294-1.652.055-4.113.147-5.468.202-1.356.055-4.193.009-6.305-.103-4.428-.235-5.822.229-9.387 3.125-3.393 2.756-3.164 4.036.527 2.944 4.622-1.369 11.408-2.79 14.573-3.052 7.744-.643 13.306-1.028 16.064-1.114 1.65-.052 4.614-.188 6.585-.302 3.35-.194 5.144-.262 12.037-.46 6.893-.198 8.687-.267 12.037-.461 1.971-.114 4.935-.25 6.585-.301 9.527-.297 46.409-4.731 55.408-6.661 8.213-1.761 11.339-1.852 9.556-.28-.304.269-3.056 1.204-6.116 2.079-3.06.875-5.897 1.768-6.304 1.983-.72.382-3.848 1.226-17.403 4.693-3.62.926-8.054 2.063-9.853 2.526-4.124 1.062-8.132 1.954-13.149 2.926-2.164.42-5.841 1.146-8.172 1.614-14.508 2.912-36.996 5.826-47.533 6.16-1.651.052-4.111.14-5.466.196-1.356.055-5.425-.084-9.044-.309-6.174-.385-8.201-.586-13.236-1.312a67.774 67.774 0 0 0-3.649-.418c-.884-.068-2.207-.409-2.94-.757-1.48-.704-3.697.102-6.554 2.382-1.039.83-2.286 1.729-2.77 1.997-.485.27-.976.733-1.091 1.029-.388.999 1.157 1.203 5.116.675 4.998-.667 12.221-.572 22.939.3 8.242.671 15.284 1.242 21.164 1.716 9.811.792 24.079 1.324 29.755 1.109 1.43-.054 3.888-.137 5.462-.185 9.322-.285 26.387-2.074 33.291-3.489 2.255-.463 5.681-1.168 7.615-1.567 6.246-1.29 22.141-5.355 23.283-5.954.406-.213 2.512-.895 4.68-1.517 2.168-.621 4.113-1.257 4.321-1.413.209-.157 1.498-.56 2.863-.897 1.366-.337 2.72-.822 3.01-1.077.607-.536 1.469-.268 1.208.375-.289.713-8.631 5.273-10.936 5.979-1.178.36-3.524 1.407-5.215 2.326-1.69.918-4.035 1.962-5.212 2.32-1.176.357-2.607.92-3.18 1.251-.573.33-2.002.888-3.176 1.239-1.174.351-2.297.745-2.496.876-.199.131-1.322.525-2.496.875-1.174.351-2.297.745-2.496.876-.199.131-1.322.525-2.495.876-1.174.35-2.302.756-2.506.901-.659.468-20.183 5.8-24.418 6.669-2.255.463-5.945 1.223-8.201 1.689-6.584 1.36-21.648 2.914-31.023 3.2-1.575.049-4.036.14-5.469.204-3.555.158-22.592-.947-26.489-1.538-2.154-.327-5.357-.79-8.294-1.2-2.604-.364-6.149-1.08-9.997-2.019a4066.35 4066.35 0 0 0-5.909-1.439 159.437 159.437 0 0 1-6.701-1.833c-8.259-2.475-8.108-2.456-9.558-1.228-.759.643-1.865 1.402-2.459 1.686-.594.285-1.93 1.197-2.969 2.026-1.039.83-2.306 1.74-2.815 2.022-2.357 1.306-.135 2.012 7.628 2.425 13.143.7 15.029.882 20.2 1.958 1.234.257 3.28.611 4.545.788 1.266.177 3.311.531 4.546.788 1.234.257 3.28.612 4.545.788 1.266.177 3.368.539 4.673.806l4.745.969c1.305.267 3.408.629 4.673.806 1.266.177 3.311.531 4.546.788 2.123.442 4.369.797 8.76 1.387 3.378.454 5.96.822 7.917 1.128 1.048.164 3.203.392 4.789.509 1.585.116 4.519.369 6.519.562 3.925.379 23.317 1.307 28.577 1.368 4.438.05 7.233-.069 20.14-.856 2.202-.134 10.549-1.003 18.549-1.93 8.001-.927 14.619-1.436 14.707-1.13.088.306-.228.638-.703.738-.475.1-1.692.442-2.705.761-3.205 1.008-9.479 2.549-13.703 3.365-12.018 2.321-16.15 2.988-27.026 4.36-13.074 1.649-23.329 2.527-32.338 2.771-1.498.04-3.956.124-5.462.186-6.988.285-33.134-.82-38.448-1.627a817.868 817.868 0 0 0-8.165-1.182l-4.219-.589a90.039 90.039 0 0 1-4.545-.788c-1.305-.267-3.554-.723-4.997-1.015-10.298-2.08-21.158-5.431-31.044-9.58l-6.138-2.575-2.087 1.549c-1.148.852-2.86 1.955-3.806 2.45-.946.496-2.569 1.58-3.607 2.411-1.038.83-2.419 1.757-3.069 2.059-.65.302-1.359 1.007-1.576 1.565-.305.786-.127 1.035.786 1.1a55.73 55.73 0 0 1 3.094.361c1.053.152 2.892.414 4.087.58 1.195.167 3.241.522 4.546.788 1.305.267 3.497.711 4.872.987 6.772 1.361 7.942 1.61 10.456 2.226 1.489.365 3.944.915 5.455 1.222 1.512.306 3.967.856 5.456 1.221 1.489.365 3.888.902 5.331 1.194 1.443.291 3.804.772 5.245 1.067 4.032.828 7.399 1.5 9.88 1.974 1.242.237 3.381.666 4.752.952 1.371.286 3.529.664 4.794.841 1.266.177 3.311.531 4.546.788a81.78 81.78 0 0 0 4.417.771l4.218.589c1.125.157 3.022.426 4.215.599 1.193.172 3.089.442 4.214.599 1.125.157 2.847.407 3.827.556.98.148 3.079.365 4.665.481 1.585.117 5.234.401 8.109.633 7.891.635 25.752 1.396 29.567 1.259 4.171-.149 2.139.853-3.623 1.786-7.406 1.199-19.558 2.355-27.324 2.597-1.651.051-4.62.202-6.598.335-1.979.132-5.044.218-6.812.189a505.913 505.913 0 0 0-7.53-.04c-7.479.019-26.943-.951-30.538-1.522a200.02 200.02 0 0 0-3.825-.561c-2.44-.327-5.381-.738-8.309-1.16-3.953-.57-8.065-1.483-16.626-3.69-3.793-.979-26.439-11.558-29.445-13.756-1.873-1.369-1.959-1.362-5.609.513-2.039 1.047-4.562 2.581-5.607 3.407-1.045.827-3.965 2.595-6.49 3.928-2.525 1.334-4.748 2.829-4.94 3.324-.432 1.113-.243 1.198 2.753 1.242 1.326.019 3.267.174 4.313.344 1.876.304 3.91.597 8.168 1.176 5.408.734 13.989 3.238 29.659 8.651 24.748 8.55 29.91 10.048 44.45 12.901 1.308.257 3.446.684 4.751.951 1.305.267 3.406.634 4.67.816 1.263.182 3.098.455 4.077.606.979.151 3.793.401 6.253.554 5.854.366 7.239.513 9.32.984 1.625.368 1.657.423.51.868-1.634.635-10.475 1.907-13.173 1.896-1.183-.005-3.5.031-5.15.081-8.352.254-16.685.022-25.863-.72-2.874-.232-6.523-.518-8.109-.634-1.585-.116-3.684-.333-4.664-.482a728.17 728.17 0 0 0-4.079-.601 90.073 90.073 0 0 1-4.542-.798 84.16 84.16 0 0 0-4.545-.788 91.349 91.349 0 0 1-4.673-.806c-1.305-.267-3.554-.723-4.997-1.014a170.784 170.784 0 0 1-5.455-1.221l-5.908-1.445c-11.867-2.903-23.007-6.742-38.206-13.166l-3.753-1.586-9.305 5.026c-5.117 2.765-9.402 5.278-9.521 5.584-.239.617 1.336.97 4.96 1.111 2.532.098 5.026.445 8.695 1.207 1.234.257 3.279.612 4.545.788 2.724.381 6.223 1.085 10.125 2.037l5.786 1.411c7.612 1.851 9.33 2.284 12.397 3.126l6.578 1.803c1.808.496 4.727 1.256 6.487 1.689 1.759.432 4.623 1.176 6.365 1.654 2.955.81 4.688 1.247 12.276 3.092l5.786 1.411c2.629.641 3.804.892 10.58 2.253 1.375.277 3.567.72 4.872.987 2.518.515 5.678.996 12.979 1.976 1.056.142 2.777.395 3.825.561 3.678.584 20.947 1.441 25.654 1.272 4.172-.15 2.138.852-3.623 1.784-9.234 1.495-19.598 2.52-29.328 2.901-7.171.281-30.194-.708-35.39-1.52a218.858 218.858 0 0 0-3.827-.556c-4.391-.59-6.637-.945-8.76-1.387a79.332 79.332 0 0 0-4.549-.78c-1.267-.172-3.574-.633-5.128-1.023-1.553-.39-4.209-1.047-5.901-1.461a197.537 197.537 0 0 1-14.687-4.171c-5.75-1.869-35.104-15.537-35.909-16.72-.441-.649-2.624.267-9.817 4.116-5.087 2.722-9.345 5.197-9.462 5.5-.118.303.505.729 1.384.947 1.508.376 2.295.501 7.614 1.214 6.422.862 6.934.966 12.616 2.562 10.284 2.889 11.852 3.413 38.29 12.802 12.463 4.426 28.222 9.425 34.556 10.963 1.693.411 4.353 1.058 5.91 1.439 2.685.655 5.032 1.153 10.459 2.218 1.309.257 3.501.7 4.873.987 1.371.286 3.526.669 4.79.851 1.264.182 3.098.454 4.077.606.979.151 3.795.396 6.257.546 2.462.149 5.406.374 6.543.5 1.137.126 3.046.11 4.244-.035 2.335-.284 3.88.677 2.531 1.574-.419.279-2.598.667-4.843.862-7.058.615-13.414 1.06-16.38 1.147-1.574.047-4.035.138-5.468.202-3.687.166-25.739-1.081-29.669-1.677-2.154-.327-5.357-.79-8.294-1.2a81.78 81.78 0 0 1-4.417-.771 79.482 79.482 0 0 0-4.549-.78c-1.267-.172-3.519-.62-5.004-.995a139.85 139.85 0 0 0-5.451-1.233c-4.977-.997-14.926-3.914-22.988-6.74-6.186-2.168-34.2-15.33-41.762-19.621l-4.683-2.657-4.009 2.104c-2.205 1.156-4.97 2.407-6.145 2.779-5.143 1.63-9.021 4.817-6.114 5.025.649.046 2.097.221 3.218.388s2.96.429 4.087.581c1.127.151 3.171.509 4.542.795 1.372.286 3.62.743 4.997 1.015 11.15 2.203 23.037 6.171 47.96 16.009 19.064 7.526 32.387 12.12 41.719 14.385 1.693.411 4.352 1.058 5.91 1.439 3.847.939 7.392 1.655 9.997 2.019l4.218.589 4.09.571c1.125.158 2.902.422 3.95.589 1.046.166 3.918.425 6.379.575 2.462.151 6.115.425 8.119.609 2.004.184 4.57.297 5.702.252 1.132-.045 2.117.12 2.188.367.134.464-10.055 2.288-13.951 2.498-1.211.066-3.814.211-5.785.323-1.97.111-4.933.246-6.585.301a258.77 258.77 0 0 0-4.913.204c-2.576.143-20.586-.624-22.818-.971-2.255-.351-5.566-.83-8.039-1.162a478.866 478.866 0 0 1-4.09-.572c-1.193-.172-3.148-.45-4.343-.616a90.039 90.039 0 0 1-4.545-.788c-1.305-.267-3.554-.723-4.997-1.015-6.517-1.316-15.145-3.686-27.4-7.525-12.024-3.766-39.022-15.797-54.798-24.42l-5.888-3.218-2.897.869c-1.593.478-4.179 1.555-5.745 2.393-1.567.838-3.654 1.698-4.639 1.909-3.738.804-3.399 2.506.755 3.782l6.876 2.108c2.385.729 18.857 7.976 36.604 16.104 30.876 14.14 42.108 18.908 51.604 21.9 9.246 2.915 18.559 5.222 24.342 6.029 2.765.386 6.753 1.186 8.752 1.755.801.229 2.02.466 2.709.529.886.08 1.082.264.667.63-.322.284-.933.354-1.357.155-.424-.2-1.559-.146-2.521.119-1.793.494-15.587-.128-20.978-.946-3.825-.58-6.453-.963-8.417-1.228a78.005 78.005 0 0 1-4.543-.795 482.264 482.264 0 0 0-4.872-.988c-12.607-2.473-18.799-4.167-34.234-9.362-6.784-2.283-40.81-18.469-46.414-22.078-4.479-2.885-8.301-5.543-12.946-9.006-6.107-4.552-5.581-4.346-8.742-3.417-1.614.475-3.405 1.138-3.98 1.474-.575.335-2.007.901-3.183 1.257-1.175.355-2.527.847-3.003 1.092-.477.245-1.651.615-2.61.821-.958.206-1.934.868-2.168 1.472-.374.962-.171 1.164 1.653 1.643 7.562 1.988 11.292 3.46 23.255 9.18 7.377 3.526 16.017 7.983 19.2 9.904 3.183 1.921 8.391 5.065 11.573 6.988 7.488 4.523 43.137 21.534 48.779 23.277 4.542 1.403 8.472 2.41 12.87 3.298 1.443.292 3.692.748 4.997 1.015 1.305.266 3.35.621 4.545.788 1.195.166 3.031.437 4.079.601 1.048.164 3.202.395 4.786.515 6.261.473 9.329.963 9.137 1.458-.192.494-6.447 1.578-9.282 1.609-1.47.015-3.962.068-5.538.118-3.485.11-10.583-.203-15.501-.682-2-.195-4.935-.445-6.523-.555-1.587-.111-3.889-.429-5.115-.708a66.477 66.477 0 0 0-4.53-.828c-7.606-1.062-21.658-4.827-33.447-8.96-7.356-2.581-32.831-14.708-39.583-18.844-9.548-5.85-14.22-9.187-23.53-16.809a768.645 768.645 0 0 0-3.893-3.164 103.65 103.65 0 0 1-3.744-3.201c-3.792-3.439-3.836-3.456-6.923-2.54-1.618.481-3.333 1.078-3.811 1.328-.478.25-1.654.623-2.612.829-.959.206-1.919.829-2.135 1.384-.352.909.362 1.4 7.127 4.901 7.22 3.736 10.802 6.009 15.68 9.95 4.858 3.925 6.008 4.881 7.742 6.442.988.89 2.429 2.179 3.2 2.865.772.685 2.359 2.223 3.526 3.417 2.781 2.846 6.803 6.768 8.799 8.58.877.796 2.549 2.426 3.716 3.621 1.166 1.196 2.846 2.807 3.731 3.581.886.774 2.281 2.022 3.101 2.774 3.771 3.455 5.013 4.548 6.83 6.015 1.073.864 2.919 2.357 4.103 3.317 9.434 7.642 18.601 13.6 29.919 19.443 4.507 2.327 8.111 4.449 8.007 4.716-.785 2.023-5.753.139-30.073-11.404-18.737-8.893-23.405-11.589-34.677-20.029a1243.376 1243.376 0 0 0-5.018-3.737c-1.325-.98-3.169-2.477-4.099-3.327-.93-.85-2.363-2.16-3.183-2.912a615.82 615.82 0 0 0-3.189-2.894c-.934-.84-2.416-2.179-3.293-2.975a306.974 306.974 0 0 0-3.103-2.769c-.83-.727-2.975-2.856-4.768-4.731-5.426-5.674-13.12-13.533-16.021-16.362a431.824 431.824 0 0 1-3.925-3.875c-.653-.663-1.611-1.405-2.128-1.652-1.19-.566-14.841 3.114-15.225 4.105-.343.883 1.123 2.167 6.035 5.283 4.524 2.869 7.164 4.937 9.922 7.771 4.189 4.307 13.199 14.141 16.282 17.772 4.914 5.786 17.319 19.362 19.109 20.91.888.768 2.33 2.052 3.205 2.853a87.274 87.274 0 0 0 3.647 3.103c1.131.905 2.973 2.409 4.094 3.342 1.121.932 3.42 2.509 5.109 3.503 2.942 1.731 3.983 2.932 3.538 4.08-.259.666-18.631-8.619-24.561-12.412-5.26-3.365-9.531-6.359-12.395-8.691-1.183-.963-3.028-2.459-4.101-3.323a90.98 90.98 0 0 1-3.54-3.031 383.94 383.94 0 0 0-6.498-5.828c-1.803-1.57-17.335-18.556-20.058-21.936-3.45-4.281-5.531-6.826-7.436-9.092l-1.879-2.234-3.996 1.05c-10.362 2.722-14.722 3.724-24.949 5.734a559.816 559.816 0 0 0-7.61 1.555c-1.779.381-6.645 1.136-10.814 1.676-6.952.901-7.615.876-8.012-.298-.407-1.203-.412-5.092-.012-9.752.098-1.13-.181-3.545-.618-5.366-.766-3.19-.379-5.007.934-4.382 1.047.498 31.341-3.081 45.139-5.332l6.33-1.033 2.558-5.533c1.408-3.043 4.023-8.705 5.812-12.583 5.852-12.685 14.103-29.436 20.174-40.955 1.891-3.589 2.907-5.452 7.593-13.926l3.536-6.4c2.384-4.316 4.596-8.076 6.402-10.881.839-1.303 2.161-3.46 2.938-4.793 2.12-3.64 3.858-6.349 6.084-9.486 1.104-1.555 3.148-4.451 4.542-6.436 1.394-1.984 2.799-3.777 3.122-3.982.323-.206.8-.923 1.06-1.593.475-1.223 1.788-2.245 2.47-1.92.498.237-.301 2.181-1.076 2.617-.346.195-1.3 1.738-2.12 3.428-.82 1.69-2.475 4.927-3.678 7.192-4.487 8.45-9.286 19.597-21.383 49.666-6.835 16.987-13.353 32.612-14.485 34.721-3.762 7.011-5.114 9.218-7.895 12.891-1.691 2.233-2.676 3.928-2.545 4.38.13.452 1.508.447 3.56-.013l3.348-.751 2.187-4.614c3.909-8.246 7.539-15.705 9.915-20.367 6.949-13.639 7.544-14.788 12.872-24.827 1.082-2.039 2.878-5.44 3.991-7.558a485.572 485.572 0 0 1 3.904-7.256l3.608-6.537a323.432 323.432 0 0 1 3.465-6.089 316.045 316.045 0 0 0 3.388-5.954 298.307 298.307 0 0 1 3.311-5.819 4504.45 4504.45 0 0 0 3.155-5.377 166.08 166.08 0 0 1 3.022-4.924c.839-1.303 2.161-3.46 2.937-4.793a154.858 154.858 0 0 1 2.938-4.792c.839-1.303 2.161-3.46 2.937-4.793a133.387 133.387 0 0 1 2.776-4.525 784.293 784.293 0 0 0 5.478-8.571c.686-1.092 2.151-3.258 3.255-4.813a584.002 584.002 0 0 0 4.495-6.458c4.335-6.324 11.645-16.348 13.683-18.766a792.447 792.447 0 0 0 4.109-4.923 402.025 402.025 0 0 1 4.885-5.757c1.509-1.741 3.313-3.89 4.008-4.776.696-.886 1.664-1.775 2.152-1.977 1.759-.727.751 1.823-2.381 6.022-1.703 2.283-3.622 4.985-4.264 6.003-.642 1.019-1.85 2.92-2.685 4.225a179.16 179.16 0 0 0-3.015 4.928c-.823 1.405-2.243 3.825-3.155 5.377-8.19 13.936-17.572 32.911-29.939 60.554-13.367 29.877-22.209 48.255-27.668 57.508-.915 1.551-2.337 3.969-3.16 5.375-3.511 5.994-7.621 11.853-10.1 14.397-.713.732-1.769 2.112-2.347 3.066-1.472 2.431-.541 2.688 4.564 1.257 3.597-1.008 4.317-1.439 5.28-3.161 3.912-6.996 5.002-9.04 7.216-13.535 2.646-5.373 6.443-13.342 11.421-23.97l6.191-13.218c9.088-19.401 17.221-36.16 21.491-44.284 5.778-10.991 8.511-16.014 11.221-20.625l3.24-5.509c.87-1.478 2.255-3.836 3.078-5.242a146.03 146.03 0 0 1 2.86-4.657 297.49 297.49 0 0 0 2.681-4.227c.724-1.169 2.104-3.143 3.066-4.387.963-1.244 1.975-2.834 2.25-3.532.275-.698.768-1.333 1.094-1.411.327-.078.822-.727 1.099-1.443.502-1.292 1.804-2.334 2.502-2.002.503.239-.304 2.185-1.084 2.614-.351.193-1.67 2.644-2.932 5.449a45341.1 45341.1 0 0 0-6.371 14.164c-5.41 12.033-25.007 61.354-24.478 61.606.95.453 2.059-1.114 4.192-5.921 2.744-6.185 7.673-15.884 12.736-25.058l3.608-6.537a308.448 308.448 0 0 1 3.388-5.953c.912-1.552 2.332-3.972 3.155-5.377a161.975 161.975 0 0 1 2.937-4.793c.793-1.23 2.086-3.246 2.874-4.479a828.932 828.932 0 0 1 2.713-4.211c.703-1.085 1.84-2.865 2.526-3.957 2.627-4.179 12.468-17.808 13.307-18.429 1.39-1.027 1.613-.107.469 1.943-5.506 9.868-8.019 14.621-11.552 21.844-3.467 7.087-26.806 66.001-26.252 66.265.995.474 2.122-1.244 4.649-7.088 3.098-7.164 8.319-17.783 14.244-28.974 1.12-2.115 2.946-5.579 4.06-7.698a495.896 495.896 0 0 1 3.903-7.256l3.609-6.537a313.917 313.917 0 0 1 3.387-5.953c.912-1.552 2.403-4.094 3.311-5.647 1.677-2.866 3.661-6.242 6.241-10.615a174.304 174.304 0 0 1 2.951-4.786c.839-1.303 2.161-3.46 2.938-4.792.776-1.333 2.06-3.431 2.852-4.662.793-1.23 2.003-3.131 2.689-4.223.686-1.092 2.152-3.257 3.257-4.812a164.3 164.3 0 0 0 3.365-4.933c1.462-2.271 10.104-14.507 11.997-16.989 6.013-7.877 8.404-10.894 10.094-12.735 1.088-1.185 2.291-2.591 2.673-3.126.383-.534.759-.751.836-.484.077.268-.416 1.148-1.097 1.955-.68.808-1.995 2.901-2.92 4.651-.926 1.751-2.371 4.249-3.21 5.552-1.797 2.789-4.029 6.582-6.326 10.746a294.644 294.644 0 0 1-3.393 5.951c-8.926 15.153-22.091 43.536-39.465 85.083-15.206 36.365-23.375 52.963-31.265 63.535-3.984 5.336-4.147 6.297-.783 4.607 1.067-.536 2.905-1.273 4.084-1.637 1.178-.364 3.156-1.253 4.394-1.976l2.251-1.314 10.357-26.076c5.697-14.342 11.79-29.109 13.54-32.816 5.273-11.17 8.465-17.716 10.685-21.913 1.16-2.191 2.99-5.654 4.067-7.694a542.216 542.216 0 0 1 3.839-7.115l3.608-6.537a280.41 280.41 0 0 1 3.317-5.816c.874-1.475 2.331-3.955 3.24-5.508l3.305-5.65c4.348-7.434 4.575-7.803 8.664-14.104a354.688 354.688 0 0 0 2.604-4.091c.729-1.167 2.228-3.394 3.332-4.949a491.075 491.075 0 0 0 4.309-6.203c4.396-6.445 12.275-17.206 12.978-17.726.39-.288.91-.427 1.157-.309.519.247.452.374-6.504 12.209a308.6 308.6 0 0 0-3.388 5.954c-.951 1.723-2.578 4.662-3.616 6.533-1.823 3.286-3.788 7.203-9.54 19.018-5.046 10.365-11.683 25.926-23.29 54.606-13.122 32.424-17.317 41.692-22.478 49.661a698.689 698.689 0 0 0-2.704 4.216c-1.957 3.083-3.391 4.985-4.964 6.586-1.631 1.659-2.365 3.167-1.697 3.485.246.117 2.671-.976 5.389-2.428 2.717-1.453 5.906-2.942 7.086-3.308 4.141-1.288 3.698-.354 11.715-24.709 4.116-12.503 17.597-47.292 22.618-58.365 6.576-14.504 13.181-27.776 19.72-39.624l3.608-6.537c2.384-4.317 4.596-8.077 6.402-10.882.839-1.303 2.161-3.46 2.938-4.792.776-1.333 2.06-3.431 2.852-4.662.793-1.23 2.003-3.131 2.689-4.223.686-1.092 2.152-3.257 3.257-4.812a295.307 295.307 0 0 0 3.411-4.911c2.746-4.08 4.464-4.142 2.348-.086-5.904 11.319-5.922 11.367-40.298 100.507-7.295 18.918-12.365 31.498-13.664 33.909-3.75 6.956-6.942 12.196-9.58 15.732-3.984 5.336-4.147 6.297-.783 4.607 1.067-.537 2.907-1.279 4.088-1.649 1.181-.369 5.016-2.23 8.522-4.134 5.584-3.032 6.41-3.664 6.662-5.1.158-.901.576-2.971.93-4.6.354-1.629.962-4.435 1.35-6.236 1.72-7.967 3.748-15.572 7.202-27.011 2.596-8.599 26.786-70.919 31.551-81.283 5.128-11.155 9.099-19.489 11.889-24.951a310.809 310.809 0 0 0 4.231-8.648c1.727-3.724 2.854-5.176 3.705-4.771.206.098-.758 3.431-2.141 7.407a849.004 849.004 0 0 0-19.015 62.316c-1.825 6.918-5.792 21.221-8.174 29.471-6.597 22.85-12.99 39.524-18.987 49.521-.582.97-.867 1.927-.678 2.272.34.621 11.419-4.963 13.789-6.949 1.416-1.188 1.709-2.129 3.12-10.043.28-1.569.799-4.185 1.153-5.814.354-1.629.961-4.435 1.35-6.236 4.337-20.089 10.941-40.829 22.398-70.336 11.806-30.408 14.766-36.994 16.297-36.266.425.203-.24 3.15-2.241 9.94-.831 2.82-1.93 6.862-2.441 8.984a2663.747 2663.747 0 0 1-3.597 14.797c-.482 1.946-1.098 4.825-1.371 6.398a168.202 168.202 0 0 1-1.139 5.821l-1.287 5.922c-.354 1.629-.87 4.246-1.145 5.817a178.904 178.904 0 0 1-1.146 5.818l-1.356 6.233c-.392 1.799-1.011 4.678-1.374 6.397-1.636 7.745-3.19 12.609-8.108 25.375-4.875 12.657-5.793 14.615-8.899 18.98-1.2 1.686.184 2.108 1.978.603.789-.661 2.837-1.931 4.549-2.822 1.712-.89 4.279-2.556 5.704-3.703 2.763-2.222 3.187-3.15 4.242-9.28.256-1.486.682-3.915.947-5.396.265-1.482.651-3.697.857-4.923 1.198-7.122 2.024-11.169 3.613-17.713l1.798-7.399c6.514-26.785 11.722-42.864 24.853-76.734 10.305-26.579 14.213-35.882 14.929-35.541.928.442.595 2.551-1.265 8.007-2.28 6.689-3.181 9.874-8.096 28.637-1.455 5.554-2.73 10.81-3.627 14.955a336.155 336.155 0 0 1-1.568 6.82c-.767 3.149-1.092 4.61-2.911 13.06-1.818 8.45-2.144 9.911-2.911 13.06a336.155 336.155 0 0 0-1.568 6.82 341.612 341.612 0 0 1-1.603 6.976l-1.798 7.398c-3.975 16.343-8.123 29.073-12.517 38.41-1.584 3.366-1.801 4.13-1.25 4.392.368.175 1.295-.208 2.062-.851.767-.642 2.42-1.718 3.675-2.388 2.793-1.495 5.079-3.748 4.988-4.914-.038-.478.233-2.12.602-3.649a360.261 360.261 0 0 0 1.419-6.206 280.238 280.238 0 0 1 3.854-15.534c.721-2.589 1.936-6.963 2.701-9.721 7.061-25.467 14.202-46.447 27.353-80.359 13.764-35.495 16.254-41.101 17.905-40.315.208.099-1.167 4.474-3.054 9.724-4.79 13.319-7.949 23.528-11.734 37.923-1.049 3.99-1.57 6.088-3.895 15.686l-1.758 7.246a298.09 298.09 0 0 0-1.527 6.668c-.365 1.718-1.004 4.664-1.419 6.547a933.555 933.555 0 0 0-1.385 6.392c-1.436 6.769-2.088 9.701-2.904 13.062a2067.63 2067.63 0 0 0-1.782 7.407c-.86 3.604-4.8 16.382-6.058 19.644-.835 2.166-6.179 13.489-7.59 16.083-2.066 3.797-.446 4.088 3.795.683 1.036-.831 2.059-1.582 2.275-1.668.215-.087 1.561-1.105 2.992-2.263 2.432-1.97 2.623-2.266 2.964-4.608.595-4.074 1.149-7.134 1.707-9.43.289-1.186.826-3.562 1.193-5.279 7.852-36.7 28.077-88.804 49.638-127.876 4.469-8.099 5.698-10.342 6.798-12.413 2.425-4.565 4.241-4.19 1.916.396-2.529 4.989-22.737 57.536-25.211 65.557-3.216 10.427-5.628 18.537-7.213 24.254-3.277 11.818-4.258 15.321-5.652 20.181l-3.123 10.895c-.906 3.163-3.35 10.435-5.431 16.16-3.081 8.475-3.663 10.466-3.137 10.716.356.17 1.053-.094 1.548-.585.495-.491 1.303-1.113 1.793-1.382.491-.268 2.057-1.427 3.481-2.574 2.748-2.214 3.206-3.207 4.204-9.126 2.411-14.283 5.103-25.039 12.001-47.942 2.143-7.113 23.393-62.294 27.928-72.518 2.432-5.484 2.795-6.064 3.568-5.696.802.381.613 1.093-2.81 10.528-2.018 5.565-4.368 12.573-5.221 15.571-2.268 7.976-4.099 14.602-5.375 19.454-1.049 3.99-1.57 6.088-3.895 15.686l-1.794 7.401-1.793 7.401-1.83 7.556c-2.215 9.157-3.881 14.401-8.732 27.485-4.057 10.942-5.022 13.947-4.551 14.171.328.156 3.006-1.706 5.949-4.138 4.618-3.816 5.409-4.69 5.767-6.369.228-1.071.681-3.214 1.005-4.762 1.802-8.585 3.312-15.42 4.332-19.606 10.216-41.909 30.937-96.395 51.499-135.416a420.352 420.352 0 0 0 3.556-6.906c.761-1.53 1.666-2.94 2.011-3.136.344-.195 1.042-1.426 1.55-2.735.86-2.217 2.066-3.488 2.921-3.081.516.245-1.215 4.514-2.001 4.935-.613.328-7.682 16.988-12.977 30.583-3.197 8.207-10.534 29.484-12.736 36.93-4.562 15.424-6.052 20.804-8.124 29.323l-1.874 7.706a545.8 545.8 0 0 1-1.978 7.829 523.374 523.374 0 0 0-2.011 7.985c-2.72 11.252-10.677 33.72-14.122 39.882-1.068 1.91-1.167 2.368-.572 2.651.395.188 1.39-.344 2.212-1.183.822-.838 3.617-3.264 6.211-5.39 4.61-3.779 4.724-3.922 5.079-6.352.2-1.368.556-3.556.791-4.863.235-1.307.619-3.523.854-4.924.235-1.402.663-3.52.952-4.706.289-1.187.826-3.562 1.193-5.279a298.5 298.5 0 0 1 1.529-6.667c.474-1.95 1.281-5.281 1.794-7.401 5.288-21.855 16.259-53.627 28.093-81.357 3.234-7.578 4.443-9.604 5.447-9.126.203.097-.457 2.646-1.465 5.665-2.824 8.454-6.205 19.321-7.735 24.865-.762 2.76-1.975 7.134-2.696 9.723a313.056 313.056 0 0 0-2.244 8.562c-.513 2.12-1.32 5.451-1.794 7.401a341.535 341.535 0 0 0-1.603 6.975 334.707 334.707 0 0 1-1.568 6.821 326.587 326.587 0 0 0-1.568 6.82c-.82 3.786-1.976 8.589-3.64 15.12-.601 2.362-2.903 9.237-5.115 15.278-3.086 8.43-3.885 11.049-3.435 11.263.322.153 3.106-2.004 6.186-4.794 6.133-5.554 6.104-5.503 7.868-13.795 1.581-7.428 2.156-10.009 3.013-13.527 4.063-16.665 8.885-32.008 18.244-58.04 3.6-10.015 6.809-18.857 7.132-19.649 5.786-14.198 15.124-36.14 17.405-40.898 1.625-3.388 3.838-8.061 4.917-10.385 1.857-3.999 2.975-5.463 3.853-5.044.213.101-2.992 9.178-7.123 20.169-4.13 10.991-8.412 22.96-9.515 26.597-3.728 12.289-7.446 26.29-9.489 35.724a329.542 329.542 0 0 1-1.568 6.82 336.155 336.155 0 0 0-1.568 6.82c-.817 3.774-1.967 8.555-3.638 15.121-1.729 6.795-9.423 27.361-11.086 29.636-.771 1.054-1.348 2.102-1.283 2.33.355 1.228 2.334-.106 6.499-4.383 2.558-2.626 5.3-5.288 6.093-5.914 1.878-1.484 2.094-2.124 2.727-8.105.538-5.075.956-7.635 2.13-13.037.354-1.628.961-4.435 1.35-6.236 2.23-10.327 5.484-22.311 10.133-37.309 3.386-10.927 20.486-55.88 21.516-56.566 2.066-1.373 1.824.593-1.248 10.152-4.168 12.969-7.756 26.1-10.144 37.132a329.542 329.542 0 0 1-1.568 6.82 318.165 318.165 0 0 0-1.533 6.665l-1.413 6.55a328.505 328.505 0 0 1-1.568 6.82c-.474 1.951-1.281 5.28-1.794 7.401-1.819 7.517-3.639 13.678-6.158 20.845-2.867 8.159-2.748 8.72 1.076 5.064 1.6-1.53 2.466-2.776 2.67-3.841.305-1.598.9-4.412 2.247-10.625.846-3.901 2.311-9.519 4.547-17.439 1.988-7.039 18.951-50.759 22.528-58.064 1.503-3.068 3.681-7.371 4.84-9.562 1.159-2.19 2.985-5.656 4.057-7.7 1.073-2.042 2.699-4.982 3.614-6.534l3.171-5.369a214.445 214.445 0 0 0 2.56-4.456c2.145-3.889 6.337-10.076 7.313-10.792 1.4-1.03 1.617-.11.455 1.936-4.931 8.682-20.614 47.933-28.923 72.388-6.682 19.663-16.165 43.329-17.699 44.164-.781.425-1.591 2.372-1.087 2.612.698.332 2-.71 2.501-2.002.278-.716.772-1.365 1.099-1.443.327-.079.823-.712 1.102-1.408.638-1.588 21.364-29.323 26.804-35.867 2.775-3.339 5.898-7.11 8.172-9.868 5.172-6.273 6.507-7.869 9.156-10.946 1.56-1.81 4.11-4.776 5.667-6.589a4477.78 4477.78 0 0 1 5.883-6.83c1.68-1.942 4.427-5.124 6.105-7.068 2.865-3.32 4.871-5.605 14.375-16.372 9.56-10.834 11.517-13.063 14.478-16.496 1.735-2.012 3.948-4.518 4.919-5.569.971-1.05 1.922-2.316 2.114-2.811.369-.957 1.737-1.89 2.344-1.601.525.25-.4 2.4-1.105 2.57-.326.077-.853.81-1.171 1.628-.317.817-1.593 2.9-2.836 4.628-1.242 1.728-2.909 4.148-3.703 5.378-3.58 5.543-4.481 6.91-6.643 10.08a414.88 414.88 0 0 0-3.843 5.737c-5.55 8.513-28.964 40.31-35.254 47.878l-4.093 4.93c-8.982 10.83-27.973 30.868-37.2 39.25-4.235 3.847-7.789 7.227-7.9 7.511-.11.284-.956 1.305-1.88 2.269-2.064 2.153-3.872 5.181-3.265 5.47.244.116.541-.039.659-.344s.913-.932 1.766-1.395c.853-.462 2.403-1.518 3.445-2.346 1.042-.828 2.373-1.742 2.958-2.031.585-.289 1.912-1.205 2.95-2.035 1.038-.83 2.668-1.912 3.623-2.403.955-.491 2.593-1.569 3.641-2.394 1.048-.825 13.694-7.806 28.101-15.513 14.408-7.707 27.054-14.688 28.104-15.512 1.05-.825 2.993-2.066 4.319-2.76 1.325-.693 3.261-1.938 4.3-2.768 1.039-.829 2.368-1.744 2.953-2.033.585-.289 1.911-1.206 2.946-2.037 1.035-.832 2.055-1.584 2.266-1.673.211-.089 1.231-.841 2.266-1.673 1.035-.831 2.059-1.582 2.275-1.669.215-.086 1.586-1.136 3.046-2.333 1.46-1.196 3.386-2.667 4.28-3.268.894-.6 1.85-1.384 2.124-1.74.275-.356.572-.429.66-.161.239.722-4.147 5.528-8.155 8.935a4452.29 4452.29 0 0 0-7.857 6.702c-2.389 2.044-4.675 3.896-5.079 4.116-.404.221-2.288 1.674-4.187 3.229-1.899 1.555-3.631 2.897-3.849 2.983-.218.085-1.243.835-2.278 1.667-1.035.831-2.055 1.584-2.266 1.673-.211.088-1.231.841-2.266 1.672-1.035.832-2.055 1.584-2.266 1.673-.212.089-1.231.842-2.267 1.673-1.035.831-2.361 1.748-2.946 2.037-.585.289-1.91 1.205-2.946 2.037-1.036.831-2.361 1.747-2.946 2.036-.585.289-1.915 1.204-2.956 2.033-1.04.829-3.28 2.239-4.978 3.133-1.697.895-3.946 2.3-4.997 3.124-2.499 1.958-29.855 16.594-32.634 17.459-1.181.368-2.919 1.098-3.864 1.624-.945.525-2.681 1.248-3.858 1.607-1.177.358-2.485.829-2.906 1.045-.423.215-2.418.824-4.435 1.351-3.046.795-4.123 1.441-6.353 3.807-2.992 3.174-7.701 8.653-7.919 9.214-.394 1.015 1.135.533 5.345-1.686 2.555-1.347 5.605-2.751 6.777-3.12 1.172-.37 3.82-1.585 5.884-2.702 2.063-1.117 4.716-2.326 5.893-2.688 1.178-.361 2.915-1.086 3.86-1.612.945-.525 2.679-1.244 3.854-1.598 1.175-.354 2.605-.914 3.178-1.245.573-.33 2.002-.888 3.176-1.239 1.174-.352 2.603-.909 3.176-1.24.573-.33 2.002-.888 3.176-1.24 1.174-.351 2.603-.909 3.176-1.239.573-.331 2.002-.888 3.176-1.24 1.174-.351 2.603-.909 3.176-1.239.573-.331 2.002-.889 3.176-1.239 1.174-.351 2.297-.745 2.496-.876.199-.131 1.322-.525 2.496-.876s2.603-.909 3.176-1.239c.573-.331 2.002-.889 3.176-1.24 1.174-.351 2.603-.909 3.176-1.24.573-.33 2.002-.888 3.176-1.239 1.174-.351 2.603-.909 3.176-1.24.573-.33 2.002-.888 3.176-1.239 1.174-.352 2.603-.909 3.176-1.24.573-.33 2.004-.892 3.179-1.248 1.176-.356 3.216-1.238 4.533-1.959 1.318-.721 3.36-1.608 4.538-1.971 1.178-.362 3.525-1.41 5.216-2.329 1.69-.918 4.036-1.963 5.212-2.32 1.177-.358 3.893-1.533 6.035-2.612 2.143-1.078 4.121-1.956 4.396-1.951 1.038.017.019 1.087-1.982 2.08-1.143.567-2.996 1.817-4.117 2.778-1.122.96-3.45 2.483-5.175 3.383-1.725.901-3.993 2.313-5.041 3.138-1.048.825-4.514 2.89-7.703 4.587-3.19 1.698-6.66 3.76-7.714 4.583-2.493 1.946-25.768 14.401-28.562 15.284-1.182.373-4.45 1.918-7.261 3.432-2.81 1.514-6.075 3.052-7.254 3.416-1.18.366-3.222 1.254-4.54 1.976-1.317.721-3.357 1.603-4.533 1.959-1.176.355-2.606.917-3.179 1.248-.573.33-2.002.888-3.176 1.239-1.174.351-2.297.745-2.496.876-.199.131-1.322.525-2.496.875-1.174.351-2.301.756-2.505.9-1.573 1.109-20.358 5.737-27.333 6.734-3.015.431-3.152.534-9.399 7.05-3.487 3.637-7.573 7.728-9.08 9.091-5.044 4.562-5.419 6.212-.881 3.876 1.434-.737 3.572-1.64 4.751-2.004 1.179-.365 2.615-.94 3.191-1.278.576-.338 2.821-1.124 4.99-1.747 2.168-.623 4.269-1.303 4.669-1.512.787-.411 10.877-3.146 18.779-5.089l9.833-2.421a7795.25 7795.25 0 0 1 9.681-2.377c6.999-1.712 25.042-6.659 25.889-7.098.401-.209 2.503-.887 4.671-1.509 2.168-.621 4.107-1.243 4.309-1.383.203-.139 1.328-.54 2.502-.891 1.174-.351 2.603-.909 3.176-1.239.573-.331 2.002-.889 3.176-1.24 1.174-.351 2.603-.909 3.176-1.24.573-.33 2.003-.89 3.178-1.244 1.175-.354 2.909-1.073 3.854-1.599.946-.525 2.684-1.255 3.864-1.622 1.18-.367 5.579-2.504 9.776-4.749 4.197-2.245 8.412-4.196 9.366-4.336.955-.139 2.652-1.047 3.771-2.017 1.12-.97 2.237-1.667 2.485-1.549.671.32.454.586-2.107 2.584a191.126 191.126 0 0 0-4.437 3.587c-1.15.966-2.274 1.824-2.498 1.907-.224.082-1.258.828-2.297 1.658-1.039.829-2.974 2.075-4.3 2.768-1.325.693-3.269 1.935-4.319 2.759-2.476 1.945-24.395 13.676-27.193 14.555-1.181.371-3.531 1.426-5.221 2.344-1.691.919-4.037 1.965-5.215 2.326-1.177.36-2.913 1.084-3.859 1.61-.945.525-2.679 1.245-3.854 1.598-1.175.354-2.605.914-3.178 1.245-.573.33-2.002.888-3.176 1.239-1.174.352-2.603.909-3.176 1.24-.573.331-2.002.888-3.176 1.239-1.174.351-2.297.745-2.496.876-.199.131-1.322.525-2.495.876-1.174.35-2.297.744-2.496.875-.199.131-1.322.525-2.496.876-1.174.35-2.299.751-2.502.891-.202.14-2.139.757-4.305 1.371-2.165.615-4.107 1.244-4.316 1.399-.498.37-24.609 7.155-29.951 8.428-6.324 1.508-20.677 4.701-26.187 5.826-4.051.828-5.41 1.431-7.759 3.448l-6.202 5.319c-1.845 1.581-3.665 3.269-4.045 3.75-1.14 1.444.398 1.612 2.845.311 1.226-.652 3.193-1.481 4.371-1.841 1.177-.361 2.306-.77 2.509-.91.202-.14 2.141-.762 4.309-1.383s4.275-1.304 4.681-1.517c1.139-.598 17.024-4.66 23.282-5.954 1.934-.4 6.815-1.413 10.846-2.251 4.031-.839 9.035-1.858 11.12-2.265 23.166-4.522 39.23-8.269 57.189-13.337 6.659-1.879 12.276-3.543 12.485-3.697.208-.155 2.15-.784 4.315-1.398 2.166-.615 4.103-1.232 4.305-1.372.203-.139 1.329-.54 2.502-.891 1.174-.351 2.297-.745 2.496-.876.199-.13 1.324-.529 2.499-.884 1.176-.356 2.545-.857 3.044-1.113.498-.258 1.589-.57 2.425-.695.836-.125 2.279-.669 3.207-1.209 1.657-.963 2.614-1.045 2.26-.193-.098.237-2.422 1.694-5.164 3.239Zm32.494-106.996c-.25-.12-.354-.478-.23-.798.124-.32.43-.483.681-.364.25.12.353.478.229.797-.124.32-.43.484-.68.365Zm-87.83 163.865c-.251-.12-.354-.478-.23-.798.124-.319.43-.483.68-.364.251.119.354.478.23.797-.124.32-.43.484-.68.365ZM456.06 344.624c-.969-.462-2.089 1.203-4.386 6.521-1.353 3.133-3.219 6.961-4.147 8.505a404.137 404.137 0 0 0-3.161 5.374c-1.85 3.218-3.346 5.28-5.196 7.163-.796.81-1.554 1.746-1.684 2.081-.658 1.696 3.384 1.162 6.676-.882 1.56-.969 1.72-1.31 6.947-14.782 2.943-7.585 5.171-13.876 4.951-13.98Zm-12.921-9.935c-.326.078-.746.534-.932 1.013-.186.479-.07.807.257.729.326-.078.746-.534.932-1.013.186-.479.07-.807-.257-.729Zm-5.693 13.455c-.84-.4-1.954.939-3.484 4.188-.873 1.855-2.34 4.639-3.26 6.187a353.51 353.51 0 0 0-3.13 5.389c-.802 1.416-2.248 3.59-3.215 4.832-.966 1.243-1.935 2.708-2.152 3.257-.217.548-1.264 1.985-2.325 3.192l-3.859 4.391c-2.824 3.212-3.243 5.095-.853 3.837.492-.26 2.67-.983 4.84-1.609 2.169-.626 4.352-1.427 4.85-1.78 1.078-.765 13.241-31.573 12.588-31.884Z"/></mask><path clip-rule="evenodd" d="M831.797 203.651c-2.742 1.544-5.95 3.104-7.128 3.468-1.179.364-3.832 1.575-5.896 2.692-2.064 1.116-4.717 2.327-5.895 2.691-1.179.363-3.221 1.251-4.539 1.972-1.317.721-3.357 1.603-4.533 1.959-1.175.356-2.606.918-3.179 1.248-.573.331-2.002.889-3.176 1.24-1.174.351-2.603.909-3.176 1.239-.573.331-2.002.889-3.176 1.24-1.174.351-2.603.909-3.176 1.24-.573.33-2.002.888-3.176 1.239-1.174.351-2.297.745-2.496.876-.199.131-1.322.524-2.496.876-1.174.35-2.605.914-3.181 1.252-.576.338-2.819 1.119-4.985 1.735-2.166.616-4.104 1.235-4.306 1.374-.203.14-1.329.541-2.502.891-1.174.351-2.3.752-2.502.892-.202.139-2.14.756-4.305 1.371-2.166.614-4.108 1.244-4.316 1.398-.501.371-21.029 6.146-26.32 7.404-6.39 1.519-14.919 3.402-19.601 4.328-2.328.46-6.012 1.203-8.187 1.651-4.203.865-14.589 2.078-23.289 2.719-11.946.879-11.569.764-16.73 5.102-2.58 2.167-5.298 4.325-6.038 4.795-1.722 1.09-2.26 2.378-1 2.389 1.019.011 5.95-1.331 7.128-1.939.767-.395 14.183-4.072 22.27-6.103 6.982-1.754 35.317-7.883 48.249-10.438a6858.97 6858.97 0 0 1 16.049-3.159c24.656-4.814 39.792-8.326 61.353-14.239 7.987-2.19 14.661-3.917 14.83-3.836 1.051.5-3.29 3.32-6.721 4.364-1.176.358-2.912 1.081-3.857 1.606-.945.526-2.68 1.247-3.856 1.604-1.176.356-2.911 1.078-3.856 1.604-.945.525-2.68 1.244-3.855 1.598-1.175.354-2.605.914-3.178 1.245-.573.33-2.002.888-3.176 1.239-1.173.351-2.296.745-2.496.876-.199.131-1.322.525-2.495.875-1.174.351-2.297.745-2.496.876-.199.131-1.322.525-2.496.876s-2.605.914-3.181 1.252c-.576.338-2.819 1.119-4.985 1.736-2.166.615-4.104 1.234-4.306 1.373-.203.14-1.329.541-2.502.892-1.174.35-2.3.751-2.502.891-.203.139-2.14.757-4.305 1.371-2.166.615-4.108 1.245-4.316 1.399-.484.36-28.165 8.159-33.285 9.378-2.123.506-5.733 1.372-8.023 1.924-4.085.985-6.775 1.529-17.838 3.603-10.484 1.966-28.096 3.967-37.78 4.294-1.652.055-4.113.147-5.468.202-1.356.055-4.193.009-6.305-.103-4.428-.235-5.822.229-9.387 3.125-3.393 2.756-3.164 4.036.527 2.944 4.622-1.369 11.408-2.79 14.573-3.052 7.744-.643 13.306-1.028 16.064-1.114 1.65-.052 4.614-.188 6.585-.302 3.35-.194 5.144-.262 12.037-.46 6.893-.198 8.687-.267 12.037-.461 1.971-.114 4.935-.25 6.585-.301 9.527-.297 46.409-4.731 55.408-6.661 8.213-1.761 11.339-1.852 9.556-.28-.304.269-3.056 1.204-6.116 2.079-3.06.875-5.897 1.768-6.304 1.983-.72.382-3.848 1.226-17.403 4.693-3.62.926-8.054 2.063-9.853 2.526-4.124 1.062-8.132 1.954-13.149 2.926-2.164.42-5.841 1.146-8.172 1.614-14.508 2.912-36.996 5.826-47.533 6.16-1.651.052-4.111.14-5.466.196-1.356.055-5.425-.084-9.044-.309-6.174-.385-8.201-.586-13.236-1.312a67.774 67.774 0 0 0-3.649-.418c-.884-.068-2.207-.409-2.94-.757-1.48-.704-3.697.102-6.554 2.382-1.039.83-2.286 1.729-2.77 1.997-.485.27-.976.733-1.091 1.029-.388.999 1.157 1.203 5.116.675 4.998-.667 12.221-.572 22.939.3 8.242.671 15.284 1.242 21.164 1.716 9.811.792 24.079 1.324 29.755 1.109 1.43-.054 3.888-.137 5.462-.185 9.322-.285 26.387-2.074 33.291-3.489 2.255-.463 5.681-1.168 7.615-1.567 6.246-1.29 22.141-5.355 23.283-5.954.406-.213 2.512-.895 4.68-1.517 2.168-.621 4.113-1.257 4.321-1.413.209-.157 1.498-.56 2.863-.897 1.366-.337 2.72-.822 3.01-1.077.607-.536 1.469-.268 1.208.375-.289.713-8.631 5.273-10.936 5.979-1.178.36-3.524 1.407-5.215 2.326-1.69.918-4.035 1.962-5.212 2.32-1.176.357-2.607.92-3.18 1.251-.573.33-2.002.888-3.176 1.239-1.174.351-2.297.745-2.496.876-.199.131-1.322.525-2.496.875-1.174.351-2.297.745-2.496.876-.199.131-1.322.525-2.495.876-1.174.35-2.302.756-2.506.901-.659.468-20.183 5.8-24.418 6.669-2.255.463-5.945 1.223-8.201 1.689-6.584 1.36-21.648 2.914-31.023 3.2-1.575.049-4.036.14-5.469.204-3.555.158-22.592-.947-26.489-1.538-2.154-.327-5.357-.79-8.294-1.2-2.604-.364-6.149-1.08-9.997-2.019a4066.35 4066.35 0 0 0-5.909-1.439 159.437 159.437 0 0 1-6.701-1.833c-8.259-2.475-8.108-2.456-9.558-1.228-.759.643-1.865 1.402-2.459 1.686-.594.285-1.93 1.197-2.969 2.026-1.039.83-2.306 1.74-2.815 2.022-2.357 1.306-.135 2.012 7.628 2.425 13.143.7 15.029.882 20.2 1.958 1.234.257 3.28.611 4.545.788 1.266.177 3.311.531 4.546.788 1.234.257 3.28.612 4.545.788 1.266.177 3.368.539 4.673.806l4.745.969c1.305.267 3.408.629 4.673.806 1.266.177 3.311.531 4.546.788 2.123.442 4.369.797 8.76 1.387 3.378.454 5.96.822 7.917 1.128 1.048.164 3.203.392 4.789.509 1.585.116 4.519.369 6.519.562 3.925.379 23.317 1.307 28.577 1.368 4.438.05 7.233-.069 20.14-.856 2.202-.134 10.549-1.003 18.549-1.93 8.001-.927 14.619-1.436 14.707-1.13.088.306-.228.638-.703.738-.475.1-1.692.442-2.705.761-3.205 1.008-9.479 2.549-13.703 3.365-12.018 2.321-16.15 2.988-27.026 4.36-13.074 1.649-23.329 2.527-32.338 2.771-1.498.04-3.956.124-5.462.186-6.988.285-33.134-.82-38.448-1.627a817.868 817.868 0 0 0-8.165-1.182l-4.219-.589a90.039 90.039 0 0 1-4.545-.788c-1.305-.267-3.554-.723-4.997-1.015-10.298-2.08-21.158-5.431-31.044-9.58l-6.138-2.575-2.087 1.549c-1.148.852-2.86 1.955-3.806 2.45-.946.496-2.569 1.58-3.607 2.411-1.038.83-2.419 1.757-3.069 2.059-.65.302-1.359 1.007-1.576 1.565-.305.786-.127 1.035.786 1.1a55.73 55.73 0 0 1 3.094.361c1.053.152 2.892.414 4.087.58 1.195.167 3.241.522 4.546.788 1.305.267 3.497.711 4.872.987 6.772 1.361 7.942 1.61 10.456 2.226 1.489.365 3.944.915 5.455 1.222 1.512.306 3.967.856 5.456 1.221 1.489.365 3.888.902 5.331 1.194 1.443.291 3.804.772 5.245 1.067 4.032.828 7.399 1.5 9.88 1.974 1.242.237 3.381.666 4.752.952 1.371.286 3.529.664 4.794.841 1.266.177 3.311.531 4.546.788a81.78 81.78 0 0 0 4.417.771l4.218.589c1.125.157 3.022.426 4.215.599 1.193.172 3.089.442 4.214.599 1.125.157 2.847.407 3.827.556.98.148 3.079.365 4.665.481 1.585.117 5.234.401 8.109.633 7.891.635 25.752 1.396 29.567 1.259 4.171-.149 2.139.853-3.623 1.786-7.406 1.199-19.558 2.355-27.324 2.597-1.651.051-4.62.202-6.598.335-1.979.132-5.044.218-6.812.189a505.913 505.913 0 0 0-7.53-.04c-7.479.019-26.943-.951-30.538-1.522a200.02 200.02 0 0 0-3.825-.561c-2.44-.327-5.381-.738-8.309-1.16-3.953-.57-8.065-1.483-16.626-3.69-3.793-.979-26.439-11.558-29.445-13.756-1.873-1.369-1.959-1.362-5.609.513-2.039 1.047-4.562 2.581-5.607 3.407-1.045.827-3.965 2.595-6.49 3.928-2.525 1.334-4.748 2.829-4.94 3.324-.432 1.113-.243 1.198 2.753 1.242 1.326.019 3.267.174 4.313.344 1.876.304 3.91.597 8.168 1.176 5.408.734 13.989 3.238 29.659 8.651 24.748 8.55 29.91 10.048 44.45 12.901 1.308.257 3.446.684 4.751.951 1.305.267 3.406.634 4.67.816 1.263.182 3.098.455 4.077.606.979.151 3.793.401 6.253.554 5.854.366 7.239.513 9.32.984 1.625.368 1.657.423.51.868-1.634.635-10.475 1.907-13.173 1.896-1.183-.005-3.5.031-5.15.081-8.352.254-16.685.022-25.863-.72-2.874-.232-6.523-.518-8.109-.634-1.585-.116-3.684-.333-4.664-.482a728.17 728.17 0 0 0-4.079-.601 90.073 90.073 0 0 1-4.542-.798 84.16 84.16 0 0 0-4.545-.788 91.349 91.349 0 0 1-4.673-.806c-1.305-.267-3.554-.723-4.997-1.014a170.784 170.784 0 0 1-5.455-1.221l-5.908-1.445c-11.867-2.903-23.007-6.742-38.206-13.166l-3.753-1.586-9.305 5.026c-5.117 2.765-9.402 5.278-9.521 5.584-.239.617 1.336.97 4.96 1.111 2.532.098 5.026.445 8.695 1.207 1.234.257 3.279.612 4.545.788 2.724.381 6.223 1.085 10.125 2.037l5.786 1.411c7.612 1.851 9.33 2.284 12.397 3.126l6.578 1.803c1.808.496 4.727 1.256 6.487 1.689 1.759.432 4.623 1.176 6.365 1.654 2.955.81 4.688 1.247 12.276 3.092l5.786 1.411c2.629.641 3.804.892 10.58 2.253 1.375.277 3.567.72 4.872.987 2.518.515 5.678.996 12.979 1.976 1.056.142 2.777.395 3.825.561 3.678.584 20.947 1.441 25.654 1.272 4.172-.15 2.138.852-3.623 1.784-9.234 1.495-19.598 2.52-29.328 2.901-7.171.281-30.194-.708-35.39-1.52a218.858 218.858 0 0 0-3.827-.556c-4.391-.59-6.637-.945-8.76-1.387a79.332 79.332 0 0 0-4.549-.78c-1.267-.172-3.574-.633-5.128-1.023-1.553-.39-4.209-1.047-5.901-1.461a197.537 197.537 0 0 1-14.687-4.171c-5.75-1.869-35.104-15.537-35.909-16.72-.441-.649-2.624.267-9.817 4.116-5.087 2.722-9.345 5.197-9.462 5.5-.118.303.505.729 1.384.947 1.508.376 2.295.501 7.614 1.214 6.422.862 6.934.966 12.616 2.562 10.284 2.889 11.852 3.413 38.29 12.802 12.463 4.426 28.222 9.425 34.556 10.963 1.693.411 4.353 1.058 5.91 1.439 2.685.655 5.032 1.153 10.459 2.218 1.309.257 3.501.7 4.873.987 1.371.286 3.526.669 4.79.851 1.264.182 3.098.454 4.077.606.979.151 3.795.396 6.257.546 2.462.149 5.406.374 6.543.5 1.137.126 3.046.11 4.244-.035 2.335-.284 3.88.677 2.531 1.574-.419.279-2.598.667-4.843.862-7.058.615-13.414 1.06-16.38 1.147-1.574.047-4.035.138-5.468.202-3.687.166-25.739-1.081-29.669-1.677-2.154-.327-5.357-.79-8.294-1.2a81.78 81.78 0 0 1-4.417-.771 79.482 79.482 0 0 0-4.549-.78c-1.267-.172-3.519-.62-5.004-.995a139.85 139.85 0 0 0-5.451-1.233c-4.977-.997-14.926-3.914-22.988-6.74-6.186-2.168-34.2-15.33-41.762-19.621l-4.683-2.657-4.009 2.104c-2.205 1.156-4.97 2.407-6.145 2.779-5.143 1.63-9.021 4.817-6.114 5.025.649.046 2.097.221 3.218.388s2.96.429 4.087.581c1.127.151 3.171.509 4.542.795 1.372.286 3.62.743 4.997 1.015 11.15 2.203 23.037 6.171 47.96 16.009 19.064 7.526 32.387 12.12 41.719 14.385 1.693.411 4.352 1.058 5.91 1.439 3.847.939 7.392 1.655 9.997 2.019l4.218.589 4.09.571c1.125.158 2.902.422 3.95.589 1.046.166 3.918.425 6.379.575 2.462.151 6.115.425 8.119.609 2.004.184 4.57.297 5.702.252 1.132-.045 2.117.12 2.188.367.134.464-10.055 2.288-13.951 2.498-1.211.066-3.814.211-5.785.323-1.97.111-4.933.246-6.585.301a258.77 258.77 0 0 0-4.913.204c-2.576.143-20.586-.624-22.818-.971-2.255-.351-5.566-.83-8.039-1.162a478.866 478.866 0 0 1-4.09-.572c-1.193-.172-3.148-.45-4.343-.616a90.039 90.039 0 0 1-4.545-.788c-1.305-.267-3.554-.723-4.997-1.015-6.517-1.316-15.145-3.686-27.4-7.525-12.024-3.766-39.022-15.797-54.798-24.42l-5.888-3.218-2.897.869c-1.593.478-4.179 1.555-5.745 2.393-1.567.838-3.654 1.698-4.639 1.909-3.738.804-3.399 2.506.755 3.782l6.876 2.108c2.385.729 18.857 7.976 36.604 16.104 30.876 14.14 42.108 18.908 51.604 21.9 9.246 2.915 18.559 5.222 24.342 6.029 2.765.386 6.753 1.186 8.752 1.755.801.229 2.02.466 2.709.529.886.08 1.082.264.667.63-.322.284-.933.354-1.357.155-.424-.2-1.559-.146-2.521.119-1.793.494-15.587-.128-20.978-.946-3.825-.58-6.453-.963-8.417-1.228a78.005 78.005 0 0 1-4.543-.795 482.264 482.264 0 0 0-4.872-.988c-12.607-2.473-18.799-4.167-34.234-9.362-6.784-2.283-40.81-18.469-46.414-22.078-4.479-2.885-8.301-5.543-12.946-9.006-6.107-4.552-5.581-4.346-8.742-3.417-1.614.475-3.405 1.138-3.98 1.474-.575.335-2.007.901-3.183 1.257-1.175.355-2.527.847-3.003 1.092-.477.245-1.651.615-2.61.821-.958.206-1.934.868-2.168 1.472-.374.962-.171 1.164 1.653 1.643 7.562 1.988 11.292 3.46 23.255 9.18 7.377 3.526 16.017 7.983 19.2 9.904 3.183 1.921 8.391 5.065 11.573 6.988 7.488 4.523 43.137 21.534 48.779 23.277 4.542 1.403 8.472 2.41 12.87 3.298 1.443.292 3.692.748 4.997 1.015 1.305.266 3.35.621 4.545.788 1.195.166 3.031.437 4.079.601 1.048.164 3.202.395 4.786.515 6.261.473 9.329.963 9.137 1.458-.192.494-6.447 1.578-9.282 1.609-1.47.015-3.962.068-5.538.118-3.485.11-10.583-.203-15.501-.682-2-.195-4.935-.445-6.523-.555-1.587-.111-3.889-.429-5.115-.708a66.477 66.477 0 0 0-4.53-.828c-7.606-1.062-21.658-4.827-33.447-8.96-7.356-2.581-32.831-14.708-39.583-18.844-9.548-5.85-14.22-9.187-23.53-16.809a768.645 768.645 0 0 0-3.893-3.164 103.65 103.65 0 0 1-3.744-3.201c-3.792-3.439-3.836-3.456-6.923-2.54-1.618.481-3.333 1.078-3.811 1.328-.478.25-1.654.623-2.612.829-.959.206-1.919.829-2.135 1.384-.352.909.362 1.4 7.127 4.901 7.22 3.736 10.802 6.009 15.68 9.95 4.858 3.925 6.008 4.881 7.742 6.442.988.89 2.429 2.179 3.2 2.865.772.685 2.359 2.223 3.526 3.417 2.781 2.846 6.803 6.768 8.799 8.58.877.796 2.549 2.426 3.716 3.621 1.166 1.196 2.846 2.807 3.731 3.581.886.774 2.281 2.022 3.101 2.774 3.771 3.455 5.013 4.548 6.83 6.015 1.073.864 2.919 2.357 4.103 3.317 9.434 7.642 18.601 13.6 29.919 19.443 4.507 2.327 8.111 4.449 8.007 4.716-.785 2.023-5.753.139-30.073-11.404-18.737-8.893-23.405-11.589-34.677-20.029a1243.376 1243.376 0 0 0-5.018-3.737c-1.325-.98-3.169-2.477-4.099-3.327-.93-.85-2.363-2.16-3.183-2.912a615.82 615.82 0 0 0-3.189-2.894c-.934-.84-2.416-2.179-3.293-2.975a306.974 306.974 0 0 0-3.103-2.769c-.83-.727-2.975-2.856-4.768-4.731-5.426-5.674-13.12-13.533-16.021-16.362a431.824 431.824 0 0 1-3.925-3.875c-.653-.663-1.611-1.405-2.128-1.652-1.19-.566-14.841 3.114-15.225 4.105-.343.883 1.123 2.167 6.035 5.283 4.524 2.869 7.164 4.937 9.922 7.771 4.189 4.307 13.199 14.141 16.282 17.772 4.914 5.786 17.319 19.362 19.109 20.91.888.768 2.33 2.052 3.205 2.853a87.274 87.274 0 0 0 3.647 3.103c1.131.905 2.973 2.409 4.094 3.342 1.121.932 3.42 2.509 5.109 3.503 2.942 1.731 3.983 2.932 3.538 4.08-.259.666-18.631-8.619-24.561-12.412-5.26-3.365-9.531-6.359-12.395-8.691-1.183-.963-3.028-2.459-4.101-3.323a90.98 90.98 0 0 1-3.54-3.031 383.94 383.94 0 0 0-6.498-5.828c-1.803-1.57-17.335-18.556-20.058-21.936-3.45-4.281-5.531-6.826-7.436-9.092l-1.879-2.234-3.996 1.05c-10.362 2.722-14.722 3.724-24.949 5.734a559.816 559.816 0 0 0-7.61 1.555c-1.779.381-6.645 1.136-10.814 1.676-6.952.901-7.615.876-8.012-.298-.407-1.203-.412-5.092-.012-9.752.098-1.13-.181-3.545-.618-5.366-.766-3.19-.379-5.007.934-4.382 1.047.498 31.341-3.081 45.139-5.332l6.33-1.033 2.558-5.533c1.408-3.043 4.023-8.705 5.812-12.583 5.852-12.685 14.103-29.436 20.174-40.955 1.891-3.589 2.907-5.452 7.593-13.926l3.536-6.4c2.384-4.316 4.596-8.076 6.402-10.881.839-1.303 2.161-3.46 2.938-4.793 2.12-3.64 3.858-6.349 6.084-9.486 1.104-1.555 3.148-4.451 4.542-6.436 1.394-1.984 2.799-3.777 3.122-3.982.323-.206.8-.923 1.06-1.593.475-1.223 1.788-2.245 2.47-1.92.498.237-.301 2.181-1.076 2.617-.346.195-1.3 1.738-2.12 3.428-.82 1.69-2.475 4.927-3.678 7.192-4.487 8.45-9.286 19.597-21.383 49.666-6.835 16.987-13.353 32.612-14.485 34.721-3.762 7.011-5.114 9.218-7.895 12.891-1.691 2.233-2.676 3.928-2.545 4.38.13.452 1.508.447 3.56-.013l3.348-.751 2.187-4.614c3.909-8.246 7.539-15.705 9.915-20.367 6.949-13.639 7.544-14.788 12.872-24.827 1.082-2.039 2.878-5.44 3.991-7.558a485.572 485.572 0 0 1 3.904-7.256l3.608-6.537a323.432 323.432 0 0 1 3.465-6.089 316.045 316.045 0 0 0 3.388-5.954 298.307 298.307 0 0 1 3.311-5.819 4504.45 4504.45 0 0 0 3.155-5.377 166.08 166.08 0 0 1 3.022-4.924c.839-1.303 2.161-3.46 2.937-4.793a154.858 154.858 0 0 1 2.938-4.792c.839-1.303 2.161-3.46 2.937-4.793a133.387 133.387 0 0 1 2.776-4.525 784.293 784.293 0 0 0 5.478-8.571c.686-1.092 2.151-3.258 3.255-4.813a584.002 584.002 0 0 0 4.495-6.458c4.335-6.324 11.645-16.348 13.683-18.766a792.447 792.447 0 0 0 4.109-4.923 402.025 402.025 0 0 1 4.885-5.757c1.509-1.741 3.313-3.89 4.008-4.776.696-.886 1.664-1.775 2.152-1.977 1.759-.727.751 1.823-2.381 6.022-1.703 2.283-3.622 4.985-4.264 6.003-.642 1.019-1.85 2.92-2.685 4.225a179.16 179.16 0 0 0-3.015 4.928c-.823 1.405-2.243 3.825-3.155 5.377-8.19 13.936-17.572 32.911-29.939 60.554-13.367 29.877-22.209 48.255-27.668 57.508-.915 1.551-2.337 3.969-3.16 5.375-3.511 5.994-7.621 11.853-10.1 14.397-.713.732-1.769 2.112-2.347 3.066-1.472 2.431-.541 2.688 4.564 1.257 3.597-1.008 4.317-1.439 5.28-3.161 3.912-6.996 5.002-9.04 7.216-13.535 2.646-5.373 6.443-13.342 11.421-23.97l6.191-13.218c9.088-19.401 17.221-36.16 21.491-44.284 5.778-10.991 8.511-16.014 11.221-20.625l3.24-5.509c.87-1.478 2.255-3.836 3.078-5.242a146.03 146.03 0 0 1 2.86-4.657 297.49 297.49 0 0 0 2.681-4.227c.724-1.169 2.104-3.143 3.066-4.387.963-1.244 1.975-2.834 2.25-3.532.275-.698.768-1.333 1.094-1.411.327-.078.822-.727 1.099-1.443.502-1.292 1.804-2.334 2.502-2.002.503.239-.304 2.185-1.084 2.614-.351.193-1.67 2.644-2.932 5.449a45341.1 45341.1 0 0 0-6.371 14.164c-5.41 12.033-25.007 61.354-24.478 61.606.95.453 2.059-1.114 4.192-5.921 2.744-6.185 7.673-15.884 12.736-25.058l3.608-6.537a308.448 308.448 0 0 1 3.388-5.953c.912-1.552 2.332-3.972 3.155-5.377a161.975 161.975 0 0 1 2.937-4.793c.793-1.23 2.086-3.246 2.874-4.479a828.932 828.932 0 0 1 2.713-4.211c.703-1.085 1.84-2.865 2.526-3.957 2.627-4.179 12.468-17.808 13.307-18.429 1.39-1.027 1.613-.107.469 1.943-5.506 9.868-8.019 14.621-11.552 21.844-3.467 7.087-26.806 66.001-26.252 66.265.995.474 2.122-1.244 4.649-7.088 3.098-7.164 8.319-17.783 14.244-28.974 1.12-2.115 2.946-5.579 4.06-7.698a495.896 495.896 0 0 1 3.903-7.256l3.609-6.537a313.917 313.917 0 0 1 3.387-5.953c.912-1.552 2.403-4.094 3.311-5.647 1.677-2.866 3.661-6.242 6.241-10.615a174.304 174.304 0 0 1 2.951-4.786c.839-1.303 2.161-3.46 2.938-4.792.776-1.333 2.06-3.431 2.852-4.662.793-1.23 2.003-3.131 2.689-4.223.686-1.092 2.152-3.257 3.257-4.812a164.3 164.3 0 0 0 3.365-4.933c1.462-2.271 10.104-14.507 11.997-16.989 6.013-7.877 8.404-10.894 10.094-12.735 1.088-1.185 2.291-2.591 2.673-3.126.383-.534.759-.751.836-.484.077.268-.416 1.148-1.097 1.955-.68.808-1.995 2.901-2.92 4.651-.926 1.751-2.371 4.249-3.21 5.552-1.797 2.789-4.029 6.582-6.326 10.746a294.644 294.644 0 0 1-3.393 5.951c-8.926 15.153-22.091 43.536-39.465 85.083-15.206 36.365-23.375 52.963-31.265 63.535-3.984 5.336-4.147 6.297-.783 4.607 1.067-.536 2.905-1.273 4.084-1.637 1.178-.364 3.156-1.253 4.394-1.976l2.251-1.314 10.357-26.076c5.697-14.342 11.79-29.109 13.54-32.816 5.273-11.17 8.465-17.716 10.685-21.913 1.16-2.191 2.99-5.654 4.067-7.694a542.216 542.216 0 0 1 3.839-7.115l3.608-6.537a280.41 280.41 0 0 1 3.317-5.816c.874-1.475 2.331-3.955 3.24-5.508l3.305-5.65c4.348-7.434 4.575-7.803 8.664-14.104a354.688 354.688 0 0 0 2.604-4.091c.729-1.167 2.228-3.394 3.332-4.949a491.075 491.075 0 0 0 4.309-6.203c4.396-6.445 12.275-17.206 12.978-17.726.39-.288.91-.427 1.157-.309.519.247.452.374-6.504 12.209a308.6 308.6 0 0 0-3.388 5.954c-.951 1.723-2.578 4.662-3.616 6.533-1.823 3.286-3.788 7.203-9.54 19.018-5.046 10.365-11.683 25.926-23.29 54.606-13.122 32.424-17.317 41.692-22.478 49.661a698.689 698.689 0 0 0-2.704 4.216c-1.957 3.083-3.391 4.985-4.964 6.586-1.631 1.659-2.365 3.167-1.697 3.485.246.117 2.671-.976 5.389-2.428 2.717-1.453 5.906-2.942 7.086-3.308 4.141-1.288 3.698-.354 11.715-24.709 4.116-12.503 17.597-47.292 22.618-58.365 6.576-14.504 13.181-27.776 19.72-39.624l3.608-6.537c2.384-4.317 4.596-8.077 6.402-10.882.839-1.303 2.161-3.46 2.938-4.792.776-1.333 2.06-3.431 2.852-4.662.793-1.23 2.003-3.131 2.689-4.223.686-1.092 2.152-3.257 3.257-4.812a295.307 295.307 0 0 0 3.411-4.911c2.746-4.08 4.464-4.142 2.348-.086-5.904 11.319-5.922 11.367-40.298 100.507-7.295 18.918-12.365 31.498-13.664 33.909-3.75 6.956-6.942 12.196-9.58 15.732-3.984 5.336-4.147 6.297-.783 4.607 1.067-.537 2.907-1.279 4.088-1.649 1.181-.369 5.016-2.23 8.522-4.134 5.584-3.032 6.41-3.664 6.662-5.1.158-.901.576-2.971.93-4.6.354-1.629.962-4.435 1.35-6.236 1.72-7.967 3.748-15.572 7.202-27.011 2.596-8.599 26.786-70.919 31.551-81.283 5.128-11.155 9.099-19.489 11.889-24.951a310.809 310.809 0 0 0 4.231-8.648c1.727-3.724 2.854-5.176 3.705-4.771.206.098-.758 3.431-2.141 7.407a849.004 849.004 0 0 0-19.015 62.316c-1.825 6.918-5.792 21.221-8.174 29.471-6.597 22.85-12.99 39.524-18.987 49.521-.582.97-.867 1.927-.678 2.272.34.621 11.419-4.963 13.789-6.949 1.416-1.188 1.709-2.129 3.12-10.043.28-1.569.799-4.185 1.153-5.814.354-1.629.961-4.435 1.35-6.236 4.337-20.089 10.941-40.829 22.398-70.336 11.806-30.408 14.766-36.994 16.297-36.266.425.203-.24 3.15-2.241 9.94-.831 2.82-1.93 6.862-2.441 8.984a2663.747 2663.747 0 0 1-3.597 14.797c-.482 1.946-1.098 4.825-1.371 6.398a168.202 168.202 0 0 1-1.139 5.821l-1.287 5.922c-.354 1.629-.87 4.246-1.145 5.817a178.904 178.904 0 0 1-1.146 5.818l-1.356 6.233c-.392 1.799-1.011 4.678-1.374 6.397-1.636 7.745-3.19 12.609-8.108 25.375-4.875 12.657-5.793 14.615-8.899 18.98-1.2 1.686.184 2.108 1.978.603.789-.661 2.837-1.931 4.549-2.822 1.712-.89 4.279-2.556 5.704-3.703 2.763-2.222 3.187-3.15 4.242-9.28.256-1.486.682-3.915.947-5.396.265-1.482.651-3.697.857-4.923 1.198-7.122 2.024-11.169 3.613-17.713l1.798-7.399c6.514-26.785 11.722-42.864 24.853-76.734 10.305-26.579 14.213-35.882 14.929-35.541.928.442.595 2.551-1.265 8.007-2.28 6.689-3.181 9.874-8.096 28.637-1.455 5.554-2.73 10.81-3.627 14.955a336.155 336.155 0 0 1-1.568 6.82c-.767 3.149-1.092 4.61-2.911 13.06-1.818 8.45-2.144 9.911-2.911 13.06a336.155 336.155 0 0 0-1.568 6.82 341.612 341.612 0 0 1-1.603 6.976l-1.798 7.398c-3.975 16.343-8.123 29.073-12.517 38.41-1.584 3.366-1.801 4.13-1.25 4.392.368.175 1.295-.208 2.062-.851.767-.642 2.42-1.718 3.675-2.388 2.793-1.495 5.079-3.748 4.988-4.914-.038-.478.233-2.12.602-3.649a360.261 360.261 0 0 0 1.419-6.206 280.238 280.238 0 0 1 3.854-15.534c.721-2.589 1.936-6.963 2.701-9.721 7.061-25.467 14.202-46.447 27.353-80.359 13.764-35.495 16.254-41.101 17.905-40.315.208.099-1.167 4.474-3.054 9.724-4.79 13.319-7.949 23.528-11.734 37.923-1.049 3.99-1.57 6.088-3.895 15.686l-1.758 7.246a298.09 298.09 0 0 0-1.527 6.668c-.365 1.718-1.004 4.664-1.419 6.547a933.555 933.555 0 0 0-1.385 6.392c-1.436 6.769-2.088 9.701-2.904 13.062a2067.63 2067.63 0 0 0-1.782 7.407c-.86 3.604-4.8 16.382-6.058 19.644-.835 2.166-6.179 13.489-7.59 16.083-2.066 3.797-.446 4.088 3.795.683 1.036-.831 2.059-1.582 2.275-1.668.215-.087 1.561-1.105 2.992-2.263 2.432-1.97 2.623-2.266 2.964-4.608.595-4.074 1.149-7.134 1.707-9.43.289-1.186.826-3.562 1.193-5.279 7.852-36.7 28.077-88.804 49.638-127.876 4.469-8.099 5.698-10.342 6.798-12.413 2.425-4.565 4.241-4.19 1.916.396-2.529 4.989-22.737 57.536-25.211 65.557-3.216 10.427-5.628 18.537-7.213 24.254-3.277 11.818-4.258 15.321-5.652 20.181l-3.123 10.895c-.906 3.163-3.35 10.435-5.431 16.16-3.081 8.475-3.663 10.466-3.137 10.716.356.17 1.053-.094 1.548-.585.495-.491 1.303-1.113 1.793-1.382.491-.268 2.057-1.427 3.481-2.574 2.748-2.214 3.206-3.207 4.204-9.126 2.411-14.283 5.103-25.039 12.001-47.942 2.143-7.113 23.393-62.294 27.928-72.518 2.432-5.484 2.795-6.064 3.568-5.696.802.381.613 1.093-2.81 10.528-2.018 5.565-4.368 12.573-5.221 15.571-2.268 7.976-4.099 14.602-5.375 19.454-1.049 3.99-1.57 6.088-3.895 15.686l-1.794 7.401-1.793 7.401-1.83 7.556c-2.215 9.157-3.881 14.401-8.732 27.485-4.057 10.942-5.022 13.947-4.551 14.171.328.156 3.006-1.706 5.949-4.138 4.618-3.816 5.409-4.69 5.767-6.369.228-1.071.681-3.214 1.005-4.762 1.802-8.585 3.312-15.42 4.332-19.606 10.216-41.909 30.937-96.395 51.499-135.416a420.352 420.352 0 0 0 3.556-6.906c.761-1.53 1.666-2.94 2.011-3.136.344-.195 1.042-1.426 1.55-2.735.86-2.217 2.066-3.488 2.921-3.081.516.245-1.215 4.514-2.001 4.935-.613.328-7.682 16.988-12.977 30.583-3.197 8.207-10.534 29.484-12.736 36.93-4.562 15.424-6.052 20.804-8.124 29.323l-1.874 7.706a545.8 545.8 0 0 1-1.978 7.829 523.374 523.374 0 0 0-2.011 7.985c-2.72 11.252-10.677 33.72-14.122 39.882-1.068 1.91-1.167 2.368-.572 2.651.395.188 1.39-.344 2.212-1.183.822-.838 3.617-3.264 6.211-5.39 4.61-3.779 4.724-3.922 5.079-6.352.2-1.368.556-3.556.791-4.863.235-1.307.619-3.523.854-4.924.235-1.402.663-3.52.952-4.706.289-1.187.826-3.562 1.193-5.279a298.5 298.5 0 0 1 1.529-6.667c.474-1.95 1.281-5.281 1.794-7.401 5.288-21.855 16.259-53.627 28.093-81.357 3.234-7.578 4.443-9.604 5.447-9.126.203.097-.457 2.646-1.465 5.665-2.824 8.454-6.205 19.321-7.735 24.865-.762 2.76-1.975 7.134-2.696 9.723a313.056 313.056 0 0 0-2.244 8.562c-.513 2.12-1.32 5.451-1.794 7.401a341.535 341.535 0 0 0-1.603 6.975 334.707 334.707 0 0 1-1.568 6.821 326.587 326.587 0 0 0-1.568 6.82c-.82 3.786-1.976 8.589-3.64 15.12-.601 2.362-2.903 9.237-5.115 15.278-3.086 8.43-3.885 11.049-3.435 11.263.322.153 3.106-2.004 6.186-4.794 6.133-5.554 6.104-5.503 7.868-13.795 1.581-7.428 2.156-10.009 3.013-13.527 4.063-16.665 8.885-32.008 18.244-58.04 3.6-10.015 6.809-18.857 7.132-19.649 5.786-14.198 15.124-36.14 17.405-40.898 1.625-3.388 3.838-8.061 4.917-10.385 1.857-3.999 2.975-5.463 3.853-5.044.213.101-2.992 9.178-7.123 20.169-4.13 10.991-8.412 22.96-9.515 26.597-3.728 12.289-7.446 26.29-9.489 35.724a329.542 329.542 0 0 1-1.568 6.82 336.155 336.155 0 0 0-1.568 6.82c-.817 3.774-1.967 8.555-3.638 15.121-1.729 6.795-9.423 27.361-11.086 29.636-.771 1.054-1.348 2.102-1.283 2.33.355 1.228 2.334-.106 6.499-4.383 2.558-2.626 5.3-5.288 6.093-5.914 1.878-1.484 2.094-2.124 2.727-8.105.538-5.075.956-7.635 2.13-13.037.354-1.628.961-4.435 1.35-6.236 2.23-10.327 5.484-22.311 10.133-37.309 3.386-10.927 20.486-55.88 21.516-56.566 2.066-1.373 1.824.593-1.248 10.152-4.168 12.969-7.756 26.1-10.144 37.132a329.542 329.542 0 0 1-1.568 6.82 318.165 318.165 0 0 0-1.533 6.665l-1.413 6.55a328.505 328.505 0 0 1-1.568 6.82c-.474 1.951-1.281 5.28-1.794 7.401-1.819 7.517-3.639 13.678-6.158 20.845-2.867 8.159-2.748 8.72 1.076 5.064 1.6-1.53 2.466-2.776 2.67-3.841.305-1.598.9-4.412 2.247-10.625.846-3.901 2.311-9.519 4.547-17.439 1.988-7.039 18.951-50.759 22.528-58.064 1.503-3.068 3.681-7.371 4.84-9.562 1.159-2.19 2.985-5.656 4.057-7.7 1.073-2.042 2.699-4.982 3.614-6.534l3.171-5.369a214.445 214.445 0 0 0 2.56-4.456c2.145-3.889 6.337-10.076 7.313-10.792 1.4-1.03 1.617-.11.455 1.936-4.931 8.682-20.614 47.933-28.923 72.388-6.682 19.663-16.165 43.329-17.699 44.164-.781.425-1.591 2.372-1.087 2.612.698.332 2-.71 2.501-2.002.278-.716.772-1.365 1.099-1.443.327-.079.823-.712 1.102-1.408.638-1.588 21.364-29.323 26.804-35.867 2.775-3.339 5.898-7.11 8.172-9.868 5.172-6.273 6.507-7.869 9.156-10.946 1.56-1.81 4.11-4.776 5.667-6.589a4477.78 4477.78 0 0 1 5.883-6.83c1.68-1.942 4.427-5.124 6.105-7.068 2.865-3.32 4.871-5.605 14.375-16.372 9.56-10.834 11.517-13.063 14.478-16.496 1.735-2.012 3.948-4.518 4.919-5.569.971-1.05 1.922-2.316 2.114-2.811.369-.957 1.737-1.89 2.344-1.601.525.25-.4 2.4-1.105 2.57-.326.077-.853.81-1.171 1.628-.317.817-1.593 2.9-2.836 4.628-1.242 1.728-2.909 4.148-3.703 5.378-3.58 5.543-4.481 6.91-6.643 10.08a414.88 414.88 0 0 0-3.843 5.737c-5.55 8.513-28.964 40.31-35.254 47.878l-4.093 4.93c-8.982 10.83-27.973 30.868-37.2 39.25-4.235 3.847-7.789 7.227-7.9 7.511-.11.284-.956 1.305-1.88 2.269-2.064 2.153-3.872 5.181-3.265 5.47.244.116.541-.039.659-.344s.913-.932 1.766-1.395c.853-.462 2.403-1.518 3.445-2.346 1.042-.828 2.373-1.742 2.958-2.031.585-.289 1.912-1.205 2.95-2.035 1.038-.83 2.668-1.912 3.623-2.403.955-.491 2.593-1.569 3.641-2.394 1.048-.825 13.694-7.806 28.101-15.513 14.408-7.707 27.054-14.688 28.104-15.512 1.05-.825 2.993-2.066 4.319-2.76 1.325-.693 3.261-1.938 4.3-2.768 1.039-.829 2.368-1.744 2.953-2.033.585-.289 1.911-1.206 2.946-2.037 1.035-.832 2.055-1.584 2.266-1.673.211-.089 1.231-.841 2.266-1.673 1.035-.831 2.059-1.582 2.275-1.669.215-.086 1.586-1.136 3.046-2.333 1.46-1.196 3.386-2.667 4.28-3.268.894-.6 1.85-1.384 2.124-1.74.275-.356.572-.429.66-.161.239.722-4.147 5.528-8.155 8.935a4452.29 4452.29 0 0 0-7.857 6.702c-2.389 2.044-4.675 3.896-5.079 4.116-.404.221-2.288 1.674-4.187 3.229-1.899 1.555-3.631 2.897-3.849 2.983-.218.085-1.243.835-2.278 1.667-1.035.831-2.055 1.584-2.266 1.673-.211.088-1.231.841-2.266 1.672-1.035.832-2.055 1.584-2.266 1.673-.212.089-1.231.842-2.267 1.673-1.035.831-2.361 1.748-2.946 2.037-.585.289-1.91 1.205-2.946 2.037-1.036.831-2.361 1.747-2.946 2.036-.585.289-1.915 1.204-2.956 2.033-1.04.829-3.28 2.239-4.978 3.133-1.697.895-3.946 2.3-4.997 3.124-2.499 1.958-29.855 16.594-32.634 17.459-1.181.368-2.919 1.098-3.864 1.624-.945.525-2.681 1.248-3.858 1.607-1.177.358-2.485.829-2.906 1.045-.423.215-2.418.824-4.435 1.351-3.046.795-4.123 1.441-6.353 3.807-2.992 3.174-7.701 8.653-7.919 9.214-.394 1.015 1.135.533 5.345-1.686 2.555-1.347 5.605-2.751 6.777-3.12 1.172-.37 3.82-1.585 5.884-2.702 2.063-1.117 4.716-2.326 5.893-2.688 1.178-.361 2.915-1.086 3.86-1.612.945-.525 2.679-1.244 3.854-1.598 1.175-.354 2.605-.914 3.178-1.245.573-.33 2.002-.888 3.176-1.239 1.174-.352 2.603-.909 3.176-1.24.573-.33 2.002-.888 3.176-1.24 1.174-.351 2.603-.909 3.176-1.239.573-.331 2.002-.888 3.176-1.24 1.174-.351 2.603-.909 3.176-1.239.573-.331 2.002-.889 3.176-1.239 1.174-.351 2.297-.745 2.496-.876.199-.131 1.322-.525 2.496-.876s2.603-.909 3.176-1.239c.573-.331 2.002-.889 3.176-1.24 1.174-.351 2.603-.909 3.176-1.24.573-.33 2.002-.888 3.176-1.239 1.174-.351 2.603-.909 3.176-1.24.573-.33 2.002-.888 3.176-1.239 1.174-.352 2.603-.909 3.176-1.24.573-.33 2.004-.892 3.179-1.248 1.176-.356 3.216-1.238 4.533-1.959 1.318-.721 3.36-1.608 4.538-1.971 1.178-.362 3.525-1.41 5.216-2.329 1.69-.918 4.036-1.963 5.212-2.32 1.177-.358 3.893-1.533 6.035-2.612 2.143-1.078 4.121-1.956 4.396-1.951 1.038.017.019 1.087-1.982 2.08-1.143.567-2.996 1.817-4.117 2.778-1.122.96-3.45 2.483-5.175 3.383-1.725.901-3.993 2.313-5.041 3.138-1.048.825-4.514 2.89-7.703 4.587-3.19 1.698-6.66 3.76-7.714 4.583-2.493 1.946-25.768 14.401-28.562 15.284-1.182.373-4.45 1.918-7.261 3.432-2.81 1.514-6.075 3.052-7.254 3.416-1.18.366-3.222 1.254-4.54 1.976-1.317.721-3.357 1.603-4.533 1.959-1.176.355-2.606.917-3.179 1.248-.573.33-2.002.888-3.176 1.239-1.174.351-2.297.745-2.496.876-.199.131-1.322.525-2.496.875-1.174.351-2.301.756-2.505.9-1.573 1.109-20.358 5.737-27.333 6.734-3.015.431-3.152.534-9.399 7.05-3.487 3.637-7.573 7.728-9.08 9.091-5.044 4.562-5.419 6.212-.881 3.876 1.434-.737 3.572-1.64 4.751-2.004 1.179-.365 2.615-.94 3.191-1.278.576-.338 2.821-1.124 4.99-1.747 2.168-.623 4.269-1.303 4.669-1.512.787-.411 10.877-3.146 18.779-5.089l9.833-2.421a7795.25 7795.25 0 0 1 9.681-2.377c6.999-1.712 25.042-6.659 25.889-7.098.401-.209 2.503-.887 4.671-1.509 2.168-.621 4.107-1.243 4.309-1.383.203-.139 1.328-.54 2.502-.891 1.174-.351 2.603-.909 3.176-1.239.573-.331 2.002-.889 3.176-1.24 1.174-.351 2.603-.909 3.176-1.24.573-.33 2.003-.89 3.178-1.244 1.175-.354 2.909-1.073 3.854-1.599.946-.525 2.684-1.255 3.864-1.622 1.18-.367 5.579-2.504 9.776-4.749 4.197-2.245 8.412-4.196 9.366-4.336.955-.139 2.652-1.047 3.771-2.017 1.12-.97 2.237-1.667 2.485-1.549.671.32.454.586-2.107 2.584a191.126 191.126 0 0 0-4.437 3.587c-1.15.966-2.274 1.824-2.498 1.907-.224.082-1.258.828-2.297 1.658-1.039.829-2.974 2.075-4.3 2.768-1.325.693-3.269 1.935-4.319 2.759-2.476 1.945-24.395 13.676-27.193 14.555-1.181.371-3.531 1.426-5.221 2.344-1.691.919-4.037 1.965-5.215 2.326-1.177.36-2.913 1.084-3.859 1.61-.945.525-2.679 1.245-3.854 1.598-1.175.354-2.605.914-3.178 1.245-.573.33-2.002.888-3.176 1.239-1.174.352-2.603.909-3.176 1.24-.573.331-2.002.888-3.176 1.239-1.174.351-2.297.745-2.496.876-.199.131-1.322.525-2.495.876-1.174.35-2.297.744-2.496.875-.199.131-1.322.525-2.496.876-1.174.35-2.299.751-2.502.891-.202.14-2.139.757-4.305 1.371-2.165.615-4.107 1.244-4.316 1.399-.498.37-24.609 7.155-29.951 8.428-6.324 1.508-20.677 4.701-26.187 5.826-4.051.828-5.41 1.431-7.759 3.448l-6.202 5.319c-1.845 1.581-3.665 3.269-4.045 3.75-1.14 1.444.398 1.612 2.845.311 1.226-.652 3.193-1.481 4.371-1.841 1.177-.361 2.306-.77 2.509-.91.202-.14 2.141-.762 4.309-1.383s4.275-1.304 4.681-1.517c1.139-.598 17.024-4.66 23.282-5.954 1.934-.4 6.815-1.413 10.846-2.251 4.031-.839 9.035-1.858 11.12-2.265 23.166-4.522 39.23-8.269 57.189-13.337 6.659-1.879 12.276-3.543 12.485-3.697.208-.155 2.15-.784 4.315-1.398 2.166-.615 4.103-1.232 4.305-1.372.203-.139 1.329-.54 2.502-.891 1.174-.351 2.297-.745 2.496-.876.199-.13 1.324-.529 2.499-.884 1.176-.356 2.545-.857 3.044-1.113.498-.258 1.589-.57 2.425-.695.836-.125 2.279-.669 3.207-1.209 1.657-.963 2.614-1.045 2.26-.193-.098.237-2.422 1.694-5.164 3.239Zm32.494-106.996c-.25-.12-.354-.478-.23-.798.124-.32.43-.483.681-.364.25.12.353.478.229.797-.124.32-.43.484-.68.365Zm-87.83 163.865c-.251-.12-.354-.478-.23-.798.124-.319.43-.483.68-.364.251.119.354.478.23.797-.124.32-.43.484-.68.365ZM456.06 344.624c-.969-.462-2.089 1.203-4.386 6.521-1.353 3.133-3.219 6.961-4.147 8.505a404.137 404.137 0 0 0-3.161 5.374c-1.85 3.218-3.346 5.28-5.196 7.163-.796.81-1.554 1.746-1.684 2.081-.658 1.696 3.384 1.162 6.676-.882 1.56-.969 1.72-1.31 6.947-14.782 2.943-7.585 5.171-13.876 4.951-13.98Zm-12.921-9.935c-.326.078-.746.534-.932 1.013-.186.479-.07.807.257.729.326-.078.746-.534.932-1.013.186-.479.07-.807-.257-.729Zm-5.693 13.455c-.84-.4-1.954.939-3.484 4.188-.873 1.855-2.34 4.639-3.26 6.187a353.51 353.51 0 0 0-3.13 5.389c-.802 1.416-2.248 3.59-3.215 4.832-.966 1.243-1.935 2.708-2.152 3.257-.217.548-1.264 1.985-2.325 3.192l-3.859 4.391c-2.824 3.212-3.243 5.095-.853 3.837.492-.26 2.67-.983 4.84-1.609 2.169-.626 4.352-1.427 4.85-1.78 1.078-.765 13.241-31.573 12.588-31.884Z" stroke="#B69B89" stroke-width="2" mask="url(#a)"/></g><g opacity=".5"><mask id="b" fill="#fff"><path fill-rule="evenodd" clip-rule="evenodd" d="M1.476 294.057c.128-.153.39-2.232.581-4.622.684-8.535 1.728-17.618 2.535-22.057.946-5.205.928-21.202-.029-24.876-1.23-4.725-1.155-4.858 3.225-5.707 3.146-.61 8.316-3.643 13.04-7.651 15.717-13.33 23.228-18.704 26.967-19.297 2.935-.466 2.952-.483 2.69-2.625-.266-2.175-.342-2.113 5.168-4.172 4.623-1.726 9.41-3.102 12.624-3.627 24.183-3.95 35.55 2.428 41.254 23.146.712 2.589 1.796 6.52 2.408 8.736 1.409 5.1 3.879 16.366 4.636 21.148.32 2.016.923 5.365 1.342 7.444.747 3.708 1.089 6.841 1.725 15.766 1.004 14.073 1.955 20.381 3.317 21.98 1.963 2.307 2.195-2.436 1.27-26.006-.404-10.292-.49-10.913-3.474-24.975-4.064-19.152-4.454-20.304-12.008-35.437-3.412-6.834-3.361-7.886.437-9.107 15.084-4.849 42.673 1.869 47.32 11.522 1.862 3.869 2.445 27.875.976 40.167-.23 1.923-.602 5.914-.827 8.867-.544 7.124-1.113 11.037-2.908 20.025-4.944 24.751-5.395 30.942-2.443 33.489 2.348 2.027 3.722-1.509 8.547-21.992a728.033 728.033 0 0 1 2.3-9.508c2.332-9.184 2.309-34.896-.047-52.006-1.507-10.939-1.241-11.315 6.073-8.611 6.606 2.443 10.221 4.142 12.757 5.996 1.135.829 3.099 2.26 4.365 3.178 3.299 2.395 7.101 7.174 12.193 15.329 6.732 10.782 7.069 12.407 4.088 19.746-.97 2.389-2.247 5.76-2.837 7.493-.591 1.732-1.917 4.734-2.948 6.671a5153.792 5153.792 0 0 0-4.785 9.022c-1.6 3.026-3.432 6.429-4.07 7.562-4.39 7.799-5.476 10.225-5.507 12.311-.173 11.203 14.169-10.804 19.552-30 1.703-6.075 4.314-13.666 4.99-14.505 2.238-2.777 9.284 7.844 11.695 17.631 2.728 11.072 3.819 17.677 4.99 30.216.877 9.394 1.053 11.152 1.421 14.231 1.169 9.806.801 18.017-1.198 26.655-2.983 12.894-17.059 29.698-27.026 32.266-6.609 1.703-7.622 1.573-15.919-2.036-5.319-2.314-3.581.434 3.094 4.89 1.342.896 3.705 2.65 5.252 3.898 1.547 1.248 4.923 3.757 7.503 5.575 2.579 1.819 6.631 4.708 9.004 6.42a800.254 800.254 0 0 0 9.944 7.019c3.095 2.148 6.388 4.471 7.316 5.161 3.704 2.756 13.124 8.709 20.834 13.167 1.445.835 3.937 2.288 5.538 3.226l2.909 1.707-.012 2.225c-.009 1.622-.159 2.219-.553 2.202-.9-.037-9.745-4.917-13.563-7.482-1.248-.839-3.859-2.366-5.801-3.393-3.918-2.073-7.03-4.075-10.134-6.522-1.135-.895-6.96-5.044-12.945-9.221-11.862-8.278-16.677-11.674-34.895-24.612-4.54-3.224-9.605-6.831-11.256-8.014-6.847-4.909-7.072-2.346-.751 8.564 11.591 20.01 13.937 31.603 9.15 45.223-1.526 4.343-8.676 12.535-12.797 14.663-15.68 8.096-28.798 9.155-47.814 3.861-8.926-2.485-28.122-10.414-30.915-12.769-3.731-3.146-3.945-4.991-.713-6.152 10.9-3.917 19.404-9.022 28.505-17.111 8.657-7.696 7.934-6.832 14.992-17.906 1.446-2.269 1.672-4.398.55-5.194-1.204-.855-3.229.457-15.096 9.775-7.172 5.632-9.394 7.013-24.252 15.074-5.284 2.868-6.154 3.214-10.088 4.018-4.112.839-11.911-1.234-16.596-4.412-.839-.569-3.177-2.679-5.196-4.689-8.793-8.756-11.818-12.851-18.36-24.857-6.303-11.565-7.356-13.234-9.815-15.555-4.644-4.383-7.7-9.2-9.285-14.636-.414-1.42-1.1-3.455-1.525-4.523-.85-2.136-1.457-4.34-4.485-16.27-1.123-4.427-2.325-9.718-2.67-11.758-.344-2.04-1.109-4.885-1.699-6.323-1.888-4.605-3.292-25.309-1.835-27.049Zm32.584 42.706c5.289 3.372 40.846 3.051 42.939-.387 1.183-1.945.159-4.621-2.241-5.854-1.86-.956-4.329-.725-9.617.902-10.462 3.219-11.454 3.362-20.7 2.97-9.922-.42-13.482.392-10.38 2.369Zm2.422 44.105c1.854 1.315 6.17 2.248 9.95 2.15 6.117-.159 12.656-.587 15.719-1.029 3.274-.473 7.147-.92 11.686-1.351 1.762-.168 4.733-.87 6.602-1.561 1.869-.692 5.945-2.044 9.058-3.005 8.002-2.471 10.856-4.38 10.873-7.272.023-4.147-6.156-3.858-18.56.868-3.333 1.27-9.544 3.157-16.038 4.873-6.642 1.754-9.542 2.338-17.726 3.568-1.452.218-3.583.559-4.736.758-1.153.199-2.934.33-3.957.291-3.194-.122-4.421.609-2.87 1.71Zm34.48-138.613c.507 1.696 1.54 4.901 2.295 7.123.755 2.221 2.42 7.35 3.7 11.397 5.614 17.757 9.1 24.879 10.005 20.443 1.512-7.408-6.93-31.277-14.713-41.604-3.21-4.259-3.296-4.084-1.287 2.641Zm21.554 95.514c1.926 1.367 6.05.565 6.06-1.178.01-1.874-4.747-3.526-6.157-2.138-.842.829-.787 2.688.097 3.316Zm18.501 27.275c1.486 1.924 5.259 1.193 9.769-1.895 2.507-1.716 2.941-4.988.834-6.273-5.215-3.182-14.091 3.655-10.603 8.168ZM122 329.022c1.674 5.687 4.848 5.008 4.875-1.043.033-7.232-3.25-11.039-4.497-5.214-.231 1.074-.482 2.161-.56 2.415-.28.92-.204 2.534.182 3.842Z"/></mask><path clip-rule="evenodd" d="M1.476 294.057c.128-.153.39-2.232.581-4.622.684-8.535 1.728-17.618 2.535-22.057.946-5.205.928-21.202-.029-24.876-1.23-4.725-1.155-4.858 3.225-5.707 3.146-.61 8.316-3.643 13.04-7.651 15.717-13.33 23.228-18.704 26.967-19.297 2.935-.466 2.952-.483 2.69-2.625-.266-2.175-.342-2.113 5.168-4.172 4.623-1.726 9.41-3.102 12.624-3.627 24.183-3.95 35.55 2.428 41.254 23.146.712 2.589 1.796 6.52 2.408 8.736 1.409 5.1 3.879 16.366 4.636 21.148.32 2.016.923 5.365 1.342 7.444.747 3.708 1.089 6.841 1.725 15.766 1.004 14.073 1.955 20.381 3.317 21.98 1.963 2.307 2.195-2.436 1.27-26.006-.404-10.292-.49-10.913-3.474-24.975-4.064-19.152-4.454-20.304-12.008-35.437-3.412-6.834-3.361-7.886.437-9.107 15.084-4.849 42.673 1.869 47.32 11.522 1.862 3.869 2.445 27.875.976 40.167-.23 1.923-.602 5.914-.827 8.867-.544 7.124-1.113 11.037-2.908 20.025-4.944 24.751-5.395 30.942-2.443 33.489 2.348 2.027 3.722-1.509 8.547-21.992a728.033 728.033 0 0 1 2.3-9.508c2.332-9.184 2.309-34.896-.047-52.006-1.507-10.939-1.241-11.315 6.073-8.611 6.606 2.443 10.221 4.142 12.757 5.996 1.135.829 3.099 2.26 4.365 3.178 3.299 2.395 7.101 7.174 12.193 15.329 6.732 10.782 7.069 12.407 4.088 19.746-.97 2.389-2.247 5.76-2.837 7.493-.591 1.732-1.917 4.734-2.948 6.671a5153.792 5153.792 0 0 0-4.785 9.022c-1.6 3.026-3.432 6.429-4.07 7.562-4.39 7.799-5.476 10.225-5.507 12.311-.173 11.203 14.169-10.804 19.552-30 1.703-6.075 4.314-13.666 4.99-14.505 2.238-2.777 9.284 7.844 11.695 17.631 2.728 11.072 3.819 17.677 4.99 30.216.877 9.394 1.053 11.152 1.421 14.231 1.169 9.806.801 18.017-1.198 26.655-2.983 12.894-17.059 29.698-27.026 32.266-6.609 1.703-7.622 1.573-15.919-2.036-5.319-2.314-3.581.434 3.094 4.89 1.342.896 3.705 2.65 5.252 3.898 1.547 1.248 4.923 3.757 7.503 5.575 2.579 1.819 6.631 4.708 9.004 6.42a800.254 800.254 0 0 0 9.944 7.019c3.095 2.148 6.388 4.471 7.316 5.161 3.704 2.756 13.124 8.709 20.834 13.167 1.445.835 3.937 2.288 5.538 3.226l2.909 1.707-.012 2.225c-.009 1.622-.159 2.219-.553 2.202-.9-.037-9.745-4.917-13.563-7.482-1.248-.839-3.859-2.366-5.801-3.393-3.918-2.073-7.03-4.075-10.134-6.522-1.135-.895-6.96-5.044-12.945-9.221-11.862-8.278-16.677-11.674-34.895-24.612-4.54-3.224-9.605-6.831-11.256-8.014-6.847-4.909-7.072-2.346-.751 8.564 11.591 20.01 13.937 31.603 9.15 45.223-1.526 4.343-8.676 12.535-12.797 14.663-15.68 8.096-28.798 9.155-47.814 3.861-8.926-2.485-28.122-10.414-30.915-12.769-3.731-3.146-3.945-4.991-.713-6.152 10.9-3.917 19.404-9.022 28.505-17.111 8.657-7.696 7.934-6.832 14.992-17.906 1.446-2.269 1.672-4.398.55-5.194-1.204-.855-3.229.457-15.096 9.775-7.172 5.632-9.394 7.013-24.252 15.074-5.284 2.868-6.154 3.214-10.088 4.018-4.112.839-11.911-1.234-16.596-4.412-.839-.569-3.177-2.679-5.196-4.689-8.793-8.756-11.818-12.851-18.36-24.857-6.303-11.565-7.356-13.234-9.815-15.555-4.644-4.383-7.7-9.2-9.285-14.636-.414-1.42-1.1-3.455-1.525-4.523-.85-2.136-1.457-4.34-4.485-16.27-1.123-4.427-2.325-9.718-2.67-11.758-.344-2.04-1.109-4.885-1.699-6.323-1.888-4.605-3.292-25.309-1.835-27.049Zm32.584 42.706c5.289 3.372 40.846 3.051 42.939-.387 1.183-1.945.159-4.621-2.241-5.854-1.86-.956-4.329-.725-9.617.902-10.462 3.219-11.454 3.362-20.7 2.97-9.922-.42-13.482.392-10.38 2.369Zm2.422 44.105c1.854 1.315 6.17 2.248 9.95 2.15 6.117-.159 12.656-.587 15.719-1.029 3.274-.473 7.147-.92 11.686-1.351 1.762-.168 4.733-.87 6.602-1.561 1.869-.692 5.945-2.044 9.058-3.005 8.002-2.471 10.856-4.38 10.873-7.272.023-4.147-6.156-3.858-18.56.868-3.333 1.27-9.544 3.157-16.038 4.873-6.642 1.754-9.542 2.338-17.726 3.568-1.452.218-3.583.559-4.736.758-1.153.199-2.934.33-3.957.291-3.194-.122-4.421.609-2.87 1.71Zm34.48-138.613c.507 1.696 1.54 4.901 2.295 7.123.755 2.221 2.42 7.35 3.7 11.397 5.614 17.757 9.1 24.879 10.005 20.443 1.512-7.408-6.93-31.277-14.713-41.604-3.21-4.259-3.296-4.084-1.287 2.641Zm21.554 95.514c1.926 1.367 6.05.565 6.06-1.178.01-1.874-4.747-3.526-6.157-2.138-.842.829-.787 2.688.097 3.316Zm18.501 27.275c1.486 1.924 5.259 1.193 9.769-1.895 2.507-1.716 2.941-4.988.834-6.273-5.215-3.182-14.091 3.655-10.603 8.168ZM122 329.022c1.674 5.687 4.848 5.008 4.875-1.043.033-7.232-3.25-11.039-4.497-5.214-.231 1.074-.482 2.161-.56 2.415-.28.92-.204 2.534.182 3.842Z" stroke="#B69B89" stroke-width="2" mask="url(#b)"/></g></svg>